<ttFont>
    <TTGlyph name=".notdef" xMin="193" yMin="0" xMax="1034" yMax="1462">
      <contour>
        <pt x="193" y="1462" on="1"/>
        <pt x="1034" y="1462" on="1"/>
        <pt x="1034" y="0" on="1"/>
        <pt x="193" y="0" on="1"/>
      </contour>
      <contour>
        <pt x="297" y="104" on="1"/>
        <pt x="930" y="104" on="1"/>
        <pt x="930" y="1358" on="1"/>
        <pt x="297" y="1358" on="1"/>
      </contour>
    </TTGlyph>
    <TTGlyph name="afii301" xMin="-299" yMin="-338" xMax="299" yMax="1613">
      <contour>
        <pt x="74" y="1323" on="1"/>
        <pt x="299" y="1103" on="1"/>
        <pt x="224" y="1030" on="1"/>
        <pt x="54" y="1199" on="1"/>
        <pt x="54" y="-338" on="1"/>
        <pt x="-54" y="-338" on="1"/>
        <pt x="-54" y="1199" on="1"/>
        <pt x="-224" y="1030" on="1"/>
        <pt x="-299" y="1103" on="1"/>
        <pt x="-74" y="1323" on="1"/>
        <pt x="-299" y="1540" on="1"/>
        <pt x="-224" y="1613" on="1"/>
        <pt x="0" y="1393" on="1"/>
        <pt x="224" y="1613" on="1"/>
        <pt x="299" y="1539" on="1"/>
      </contour>
    </TTGlyph>
    <TTGlyph name="afii61664" xMin="-54" yMin="-339" xMax="54" yMax="1613">
      <contour>
        <pt x="-54" y="-339" on="1"/>
        <pt x="-54" y="1613" on="1"/>
        <pt x="54" y="1613" on="1"/>
        <pt x="54" y="-339" on="1"/>
      </contour>
    </TTGlyph>
    <TTGlyph name="glyph00006" xMin="41" yMin="172" xMax="1499" yMax="877">
      <contour>
        <pt x="41" y="322" on="1"/>
        <pt x="348" y="322" on="1"/>
        <pt x="491" y="322" on="0"/>
        <pt x="618" y="448" on="0"/>
        <pt x="618" y="598" on="1"/>
        <pt x="618" y="877" on="1"/>
        <pt x="762" y="877" on="1"/>
        <pt x="803" y="695" on="0"/>
        <pt x="803" y="608" on="1"/>
        <pt x="803" y="454" on="0"/>
        <pt x="916" y="322" on="0"/>
        <pt x="1051" y="322" on="1"/>
        <pt x="1195" y="322" on="0"/>
        <pt x="1315" y="447" on="0"/>
        <pt x="1315" y="590" on="1"/>
        <pt x="1315" y="877" on="1"/>
        <pt x="1458" y="877" on="1"/>
        <pt x="1499" y="698" on="0"/>
        <pt x="1499" y="588" on="1"/>
        <pt x="1499" y="367" on="0"/>
        <pt x="1293" y="172" on="0"/>
        <pt x="1059" y="172" on="1"/>
        <pt x="934" y="172" on="0"/>
        <pt x="773" y="264" on="0"/>
        <pt x="711" y="385" on="1"/>
        <pt x="650" y="266" on="0"/>
        <pt x="486" y="172" on="0"/>
        <pt x="358" y="172" on="1"/>
        <pt x="184" y="172" on="0"/>
        <pt x="41" y="193" on="1"/>
      </contour>
    </TTGlyph>
    <TTGlyph name="glyph00007" xMin="41" yMin="172" xMax="2193" yMax="877">
      <contour>
        <pt x="1745" y="322" on="1"/>
        <pt x="1889" y="322" on="0"/>
        <pt x="2009" y="447" on="0"/>
        <pt x="2009" y="590" on="1"/>
        <pt x="2009" y="877" on="1"/>
        <pt x="2152" y="877" on="1"/>
        <pt x="2193" y="698" on="0"/>
        <pt x="2193" y="588" on="1"/>
        <pt x="2193" y="367" on="0"/>
        <pt x="1987" y="172" on="0"/>
        <pt x="1753" y="172" on="1"/>
        <pt x="1627" y="172" on="0"/>
        <pt x="1465" y="267" on="0"/>
        <pt x="1405" y="385" on="1"/>
        <pt x="1346" y="269" on="0"/>
        <pt x="1182" y="172" on="0"/>
        <pt x="1051" y="172" on="1"/>
        <pt x="925" y="172" on="0"/>
        <pt x="766" y="269" on="0"/>
        <pt x="709" y="385" on="1"/>
        <pt x="648" y="266" on="0"/>
        <pt x="484" y="172" on="0"/>
        <pt x="356" y="172" on="1"/>
        <pt x="184" y="172" on="0"/>
        <pt x="41" y="193" on="1"/>
        <pt x="41" y="322" on="1"/>
        <pt x="346" y="322" on="1"/>
        <pt x="490" y="322" on="0"/>
        <pt x="616" y="450" on="0"/>
        <pt x="616" y="600" on="1"/>
        <pt x="616" y="877" on="1"/>
        <pt x="760" y="877" on="1"/>
        <pt x="801" y="695" on="0"/>
        <pt x="801" y="610" on="1"/>
        <pt x="801" y="454" on="0"/>
        <pt x="914" y="322" on="0"/>
        <pt x="1049" y="322" on="1"/>
        <pt x="1193" y="322" on="0"/>
        <pt x="1313" y="447" on="0"/>
        <pt x="1313" y="590" on="1"/>
        <pt x="1313" y="877" on="1"/>
        <pt x="1456" y="877" on="1"/>
        <pt x="1497" y="713" on="0"/>
        <pt x="1497" y="604" on="1"/>
        <pt x="1497" y="450" on="0"/>
        <pt x="1608" y="322" on="0"/>
      </contour>
    </TTGlyph>
    <TTGlyph name="glyph00008" xMin="113" yMin="-492" xMax="1866" yMax="897">
      <contour>
        <pt x="541" y="737" on="1"/>
        <pt x="301" y="737" on="0"/>
        <pt x="301" y="516" on="1"/>
        <pt x="301" y="428" on="0"/>
        <pt x="351" y="333" on="0"/>
        <pt x="408" y="311" on="1"/>
        <pt x="408" y="322" on="1"/>
        <pt x="715" y="322" on="1"/>
        <pt x="857" y="322" on="0"/>
        <pt x="985" y="449" on="0"/>
        <pt x="985" y="598" on="1"/>
        <pt x="985" y="877" on="1"/>
        <pt x="1128" y="877" on="1"/>
        <pt x="1169" y="718" on="0"/>
        <pt x="1169" y="608" on="1"/>
        <pt x="1169" y="454" on="0"/>
        <pt x="1282" y="322" on="0"/>
        <pt x="1417" y="322" on="1"/>
        <pt x="1561" y="322" on="0"/>
        <pt x="1681" y="447" on="0"/>
        <pt x="1681" y="590" on="1"/>
        <pt x="1681" y="877" on="1"/>
        <pt x="1825" y="877" on="1"/>
        <pt x="1852" y="742" on="0"/>
        <pt x="1866" y="629" on="0"/>
        <pt x="1866" y="588" on="1"/>
        <pt x="1866" y="367" on="0"/>
        <pt x="1660" y="172" on="0"/>
        <pt x="1425" y="172" on="1"/>
        <pt x="1299" y="172" on="0"/>
        <pt x="1137" y="267" on="0"/>
        <pt x="1077" y="385" on="1"/>
        <pt x="1017" y="267" on="0"/>
        <pt x="855" y="172" on="0"/>
        <pt x="725" y="172" on="1"/>
        <pt x="625" y="172" on="0"/>
        <pt x="541" y="178" on="1"/>
        <pt x="541" y="131" on="1"/>
        <pt x="301" y="131" on="0"/>
        <pt x="301" y="-106" on="1"/>
        <pt x="301" y="-207" on="0"/>
        <pt x="397" y="-317" on="0"/>
        <pt x="520" y="-346" on="1"/>
        <pt x="461" y="-492" on="1"/>
        <pt x="284" y="-455" on="0"/>
        <pt x="113" y="-273" on="0"/>
        <pt x="113" y="-109" on="1"/>
        <pt x="113" y="-3" on="0"/>
        <pt x="216" y="151" on="0"/>
        <pt x="328" y="205" on="1"/>
        <pt x="212" y="248" on="0"/>
        <pt x="113" y="404" on="0"/>
        <pt x="113" y="518" on="1"/>
        <pt x="113" y="696" on="0"/>
        <pt x="340" y="897" on="0"/>
        <pt x="541" y="897" on="1"/>
      </contour>
    </TTGlyph>
    <TTGlyph name="glyph00009" xMin="113" yMin="-492" xMax="2562" yMax="897">
      <contour>
        <pt x="541" y="737" on="1"/>
        <pt x="301" y="737" on="0"/>
        <pt x="301" y="516" on="1"/>
        <pt x="301" y="427" on="0"/>
        <pt x="353" y="331" on="0"/>
        <pt x="410" y="311" on="1"/>
        <pt x="410" y="322" on="1"/>
        <pt x="715" y="322" on="1"/>
        <pt x="857" y="322" on="0"/>
        <pt x="985" y="449" on="0"/>
        <pt x="985" y="600" on="1"/>
        <pt x="985" y="877" on="1"/>
        <pt x="1128" y="877" on="1"/>
        <pt x="1169" y="718" on="0"/>
        <pt x="1169" y="610" on="1"/>
        <pt x="1169" y="454" on="0"/>
        <pt x="1282" y="322" on="0"/>
        <pt x="1417" y="322" on="1"/>
        <pt x="1561" y="322" on="0"/>
        <pt x="1681" y="447" on="0"/>
        <pt x="1681" y="590" on="1"/>
        <pt x="1681" y="877" on="1"/>
        <pt x="1825" y="877" on="1"/>
        <pt x="1866" y="690" on="0"/>
        <pt x="1866" y="604" on="1"/>
        <pt x="1866" y="450" on="0"/>
        <pt x="1977" y="322" on="0"/>
        <pt x="2114" y="322" on="1"/>
        <pt x="2258" y="322" on="0"/>
        <pt x="2378" y="447" on="0"/>
        <pt x="2378" y="590" on="1"/>
        <pt x="2378" y="877" on="1"/>
        <pt x="2521" y="877" on="1"/>
        <pt x="2562" y="698" on="0"/>
        <pt x="2562" y="588" on="1"/>
        <pt x="2562" y="367" on="0"/>
        <pt x="2356" y="172" on="0"/>
        <pt x="2122" y="172" on="1"/>
        <pt x="1997" y="172" on="0"/>
        <pt x="1836" y="264" on="0"/>
        <pt x="1774" y="385" on="1"/>
        <pt x="1714" y="268" on="0"/>
        <pt x="1549" y="172" on="0"/>
        <pt x="1419" y="172" on="1"/>
        <pt x="1295" y="172" on="0"/>
        <pt x="1135" y="268" on="0"/>
        <pt x="1077" y="385" on="1"/>
        <pt x="1017" y="267" on="0"/>
        <pt x="855" y="172" on="0"/>
        <pt x="725" y="172" on="1"/>
        <pt x="625" y="172" on="0"/>
        <pt x="541" y="178" on="1"/>
        <pt x="541" y="131" on="1"/>
        <pt x="301" y="131" on="0"/>
        <pt x="301" y="-106" on="1"/>
        <pt x="301" y="-207" on="0"/>
        <pt x="397" y="-317" on="0"/>
        <pt x="520" y="-346" on="1"/>
        <pt x="461" y="-492" on="1"/>
        <pt x="284" y="-455" on="0"/>
        <pt x="113" y="-273" on="0"/>
        <pt x="113" y="-109" on="1"/>
        <pt x="113" y="-3" on="0"/>
        <pt x="216" y="151" on="0"/>
        <pt x="328" y="205" on="1"/>
        <pt x="212" y="248" on="0"/>
        <pt x="113" y="404" on="0"/>
        <pt x="113" y="518" on="1"/>
        <pt x="113" y="696" on="0"/>
        <pt x="340" y="897" on="0"/>
        <pt x="541" y="897" on="1"/>
      </contour>
    </TTGlyph>
    <TTGlyph name="glyph00010" xMin="102" yMin="-221" xMax="1516" yMax="897">
      <contour>
        <pt x="786" y="897" on="1"/>
        <pt x="927" y="897" on="0"/>
        <pt x="1077" y="764" on="0"/>
        <pt x="1077" y="639" on="1"/>
        <pt x="1077" y="577" on="0"/>
        <pt x="1138" y="514" on="0"/>
        <pt x="1196" y="514" on="1"/>
        <pt x="1268" y="514" on="0"/>
        <pt x="1333" y="602" on="0"/>
        <pt x="1333" y="692" on="1"/>
        <pt x="1333" y="877" on="1"/>
        <pt x="1475" y="877" on="1"/>
        <pt x="1516" y="736" on="0"/>
        <pt x="1516" y="659" on="1"/>
        <pt x="1516" y="517" on="0"/>
        <pt x="1357" y="365" on="0"/>
        <pt x="1196" y="365" on="1"/>
        <pt x="1056" y="365" on="0"/>
        <pt x="903" y="490" on="0"/>
        <pt x="903" y="606" on="1"/>
        <pt x="903" y="678" on="0"/>
        <pt x="839" y="758" on="0"/>
        <pt x="786" y="758" on="1"/>
        <pt x="688" y="758" on="0"/>
        <pt x="594" y="563" on="0"/>
        <pt x="594" y="352" on="1"/>
        <pt x="594" y="192" on="0"/>
        <pt x="698" y="-82" on="0"/>
        <pt x="815" y="-221" on="1"/>
        <pt x="635" y="-221" on="1"/>
        <pt x="548" y="-127" on="0"/>
        <pt x="433" y="138" on="0"/>
        <pt x="422" y="303" on="1"/>
        <pt x="388" y="13" on="0"/>
        <pt x="274" y="-221" on="1"/>
        <pt x="102" y="-221" on="1"/>
        <pt x="173" y="-64" on="0"/>
        <pt x="250" y="301" on="0"/>
        <pt x="250" y="473" on="1"/>
        <pt x="250" y="594" on="0"/>
        <pt x="173" y="815" on="0"/>
        <pt x="104" y="877" on="1"/>
        <pt x="279" y="877" on="1"/>
        <pt x="333" y="832" on="0"/>
        <pt x="414" y="629" on="0"/>
        <pt x="422" y="506" on="1"/>
        <pt x="473" y="897" on="0"/>
      </contour>
    </TTGlyph>
    <TTGlyph name="glyph00011" xMin="76" yMin="-492" xMax="1270" yMax="879">
      <contour>
        <pt x="592" y="866" on="1"/>
        <pt x="592" y="721" on="0"/>
        <pt x="638" y="552" on="0"/>
        <pt x="736" y="475" on="0"/>
        <pt x="829" y="475" on="1"/>
        <pt x="916" y="475" on="0"/>
        <pt x="1004" y="512" on="0"/>
        <pt x="1042" y="597" on="0"/>
        <pt x="1042" y="694" on="1"/>
        <pt x="1042" y="879" on="1"/>
        <pt x="1186" y="879" on="1"/>
        <pt x="1227" y="727" on="0"/>
        <pt x="1227" y="639" on="1"/>
        <pt x="1227" y="512" on="0"/>
        <pt x="1152" y="377" on="0"/>
        <pt x="984" y="315" on="0"/>
        <pt x="836" y="315" on="1"/>
        <pt x="670" y="315" on="0"/>
        <pt x="592" y="414" on="1"/>
        <pt x="597" y="226" on="0"/>
        <pt x="606" y="160" on="1"/>
        <pt x="1270" y="160" on="1"/>
        <pt x="1270" y="0" on="1"/>
        <pt x="629" y="0" on="1"/>
        <pt x="657" y="-136" on="0"/>
        <pt x="767" y="-358" on="0"/>
        <pt x="879" y="-492" on="1"/>
        <pt x="711" y="-492" on="1"/>
        <pt x="610" y="-395" on="0"/>
        <pt x="486" y="-164" on="0"/>
        <pt x="453" y="0" on="1"/>
        <pt x="258" y="0" on="1"/>
        <pt x="258" y="-205" on="1"/>
        <pt x="76" y="-205" on="1"/>
        <pt x="76" y="160" on="1"/>
        <pt x="428" y="160" on="1"/>
        <pt x="410" y="331" on="0"/>
        <pt x="410" y="561" on="1"/>
        <pt x="410" y="879" on="1"/>
        <pt x="592" y="879" on="1"/>
      </contour>
    </TTGlyph>
    <TTGlyph name="glyph00012" xMin="113" yMin="-492" xMax="541" yMax="897">
      <contour>
        <pt x="541" y="737" on="1"/>
        <pt x="301" y="737" on="0"/>
        <pt x="301" y="516" on="1"/>
        <pt x="301" y="396" on="0"/>
        <pt x="402" y="298" on="0"/>
        <pt x="541" y="291" on="1"/>
        <pt x="541" y="131" on="1"/>
        <pt x="301" y="131" on="0"/>
        <pt x="301" y="-106" on="1"/>
        <pt x="301" y="-207" on="0"/>
        <pt x="397" y="-317" on="0"/>
        <pt x="520" y="-346" on="1"/>
        <pt x="461" y="-492" on="1"/>
        <pt x="284" y="-455" on="0"/>
        <pt x="113" y="-273" on="0"/>
        <pt x="113" y="-109" on="1"/>
        <pt x="113" y="-3" on="0"/>
        <pt x="216" y="151" on="0"/>
        <pt x="328" y="205" on="1"/>
        <pt x="212" y="248" on="0"/>
        <pt x="113" y="404" on="0"/>
        <pt x="113" y="518" on="1"/>
        <pt x="113" y="696" on="0"/>
        <pt x="340" y="897" on="0"/>
        <pt x="541" y="897" on="1"/>
      </contour>
    </TTGlyph>
    <TTGlyph name="glyph00013" xMin="113" yMin="-492" xMax="541" yMax="899">
      <contour>
        <pt x="338" y="-492" on="1"/>
        <pt x="338" y="-266" on="1"/>
        <pt x="113" y="-179" on="0"/>
        <pt x="113" y="12" on="1"/>
        <pt x="113" y="186" on="0"/>
        <pt x="328" y="268" on="1"/>
        <pt x="212" y="309" on="0"/>
        <pt x="113" y="452" on="0"/>
        <pt x="113" y="555" on="1"/>
        <pt x="113" y="716" on="0"/>
        <pt x="339" y="899" on="0"/>
        <pt x="541" y="899" on="1"/>
        <pt x="541" y="739" on="1"/>
        <pt x="301" y="739" on="0"/>
        <pt x="301" y="543" on="1"/>
        <pt x="301" y="434" on="0"/>
        <pt x="406" y="344" on="0"/>
        <pt x="541" y="340" on="1"/>
        <pt x="541" y="203" on="1"/>
        <pt x="301" y="203" on="0"/>
        <pt x="301" y="18" on="1"/>
        <pt x="301" y="-60" on="0"/>
        <pt x="399" y="-143" on="0"/>
        <pt x="520" y="-166" on="1"/>
        <pt x="520" y="-492" on="1"/>
      </contour>
    </TTGlyph>
    <TTGlyph name="glyph00014" xMin="174" yMin="-242" xMax="1595" yMax="877">
      <contour>
        <pt x="1122" y="-94" on="1"/>
        <pt x="1268" y="-94" on="0"/>
        <pt x="1413" y="139" on="0"/>
        <pt x="1413" y="385" on="1"/>
        <pt x="1413" y="508" on="0"/>
        <pt x="1388" y="721" on="0"/>
        <pt x="1350" y="877" on="1"/>
        <pt x="1530" y="877" on="1"/>
        <pt x="1565" y="745" on="0"/>
        <pt x="1595" y="521" on="0"/>
        <pt x="1595" y="377" on="1"/>
        <pt x="1595" y="59" on="0"/>
        <pt x="1360" y="-242" on="0"/>
        <pt x="1122" y="-242" on="1"/>
        <pt x="884" y="-242" on="0"/>
        <pt x="649" y="59" on="0"/>
        <pt x="649" y="377" on="1"/>
        <pt x="649" y="440" on="1"/>
        <pt x="651" y="498" on="1"/>
        <pt x="591" y="459" on="0"/>
        <pt x="514" y="459" on="1"/>
        <pt x="471" y="459" on="0"/>
        <pt x="384" y="497" on="0"/>
        <pt x="356" y="535" on="1"/>
        <pt x="356" y="-221" on="1"/>
        <pt x="174" y="-221" on="1"/>
        <pt x="174" y="877" on="1"/>
        <pt x="356" y="877" on="1"/>
        <pt x="356" y="788" on="1"/>
        <pt x="356" y="695" on="0"/>
        <pt x="433" y="608" on="0"/>
        <pt x="520" y="608" on="1"/>
        <pt x="575" y="608" on="0"/>
        <pt x="635" y="646" on="0"/>
        <pt x="679" y="740" on="0"/>
        <pt x="715" y="877" on="1"/>
        <pt x="895" y="877" on="1"/>
        <pt x="858" y="724" on="0"/>
        <pt x="831" y="514" on="0"/>
        <pt x="831" y="385" on="1"/>
        <pt x="831" y="139" on="0"/>
        <pt x="976" y="-94" on="0"/>
      </contour>
    </TTGlyph>
    <TTGlyph name="glyph00015" xMin="174" yMin="-492" xMax="1595" yMax="879">
      <contour>
        <pt x="174" y="879" on="1"/>
        <pt x="356" y="879" on="1"/>
        <pt x="356" y="791" on="1"/>
        <pt x="356" y="697" on="0"/>
        <pt x="434" y="610" on="0"/>
        <pt x="520" y="610" on="1"/>
        <pt x="575" y="610" on="0"/>
        <pt x="635" y="648" on="0"/>
        <pt x="679" y="742" on="0"/>
        <pt x="715" y="879" on="1"/>
        <pt x="895" y="879" on="1"/>
        <pt x="859" y="742" on="0"/>
        <pt x="831" y="546" on="0"/>
        <pt x="831" y="424" on="1"/>
        <pt x="831" y="262" on="0"/>
        <pt x="976" y="92" on="0"/>
        <pt x="1122" y="92" on="1"/>
        <pt x="1413" y="92" on="0"/>
        <pt x="1413" y="424" on="1"/>
        <pt x="1413" y="539" on="0"/>
        <pt x="1387" y="736" on="0"/>
        <pt x="1350" y="879" on="1"/>
        <pt x="1530" y="879" on="1"/>
        <pt x="1565" y="756" on="0"/>
        <pt x="1595" y="544" on="0"/>
        <pt x="1595" y="412" on="1"/>
        <pt x="1595" y="-57" on="0"/>
        <pt x="1122" y="-57" on="1"/>
        <pt x="649" y="-57" on="0"/>
        <pt x="649" y="391" on="1"/>
        <pt x="649" y="448" on="1"/>
        <pt x="651" y="500" on="1"/>
        <pt x="591" y="461" on="0"/>
        <pt x="514" y="461" on="1"/>
        <pt x="471" y="461" on="0"/>
        <pt x="384" y="499" on="0"/>
        <pt x="356" y="537" on="1"/>
        <pt x="356" y="242" on="1"/>
        <pt x="356" y="-55" on="0"/>
        <pt x="466" y="-342" on="0"/>
        <pt x="580" y="-342" on="1"/>
        <pt x="633" y="-342" on="0"/>
        <pt x="721" y="-303" on="0"/>
        <pt x="786" y="-253" on="1"/>
        <pt x="843" y="-208" on="0"/>
        <pt x="973" y="-164" on="0"/>
        <pt x="1053" y="-164" on="1"/>
        <pt x="1163" y="-164" on="0"/>
        <pt x="1300" y="-297" on="0"/>
        <pt x="1300" y="-401" on="1"/>
        <pt x="1300" y="-440" on="0"/>
        <pt x="1280" y="-492" on="1"/>
        <pt x="1141" y="-492" on="1"/>
        <pt x="1141" y="-436" on="1"/>
        <pt x="1141" y="-376" on="0"/>
        <pt x="1078" y="-313" on="0"/>
        <pt x="1024" y="-313" on="1"/>
        <pt x="974" y="-313" on="0"/>
        <pt x="878" y="-357" on="0"/>
        <pt x="817" y="-402" on="1"/>
        <pt x="699" y="-492" on="0"/>
        <pt x="567" y="-492" on="1"/>
        <pt x="423" y="-492" on="0"/>
        <pt x="255" y="-343" on="0"/>
        <pt x="174" y="-20" on="0"/>
        <pt x="174" y="246" on="1"/>
      </contour>
    </TTGlyph>
    <TTGlyph name="glyph00016" xMin="-51" yMin="0" xMax="1602" yMax="899">
      <contour>
        <pt x="1602" y="193" on="1"/>
        <pt x="1602" y="101" on="0"/>
        <pt x="1443" y="0" on="0"/>
        <pt x="1292" y="0" on="1"/>
        <pt x="358" y="0" on="1"/>
        <pt x="358" y="150" on="1"/>
        <pt x="1296" y="150" on="1"/>
        <pt x="1419" y="150" on="0"/>
        <pt x="1419" y="199" on="1"/>
        <pt x="1419" y="239" on="0"/>
        <pt x="1248" y="316" on="0"/>
        <pt x="1071" y="360" on="1"/>
        <pt x="923" y="397" on="0"/>
        <pt x="770" y="463" on="0"/>
        <pt x="707" y="544" on="0"/>
        <pt x="707" y="623" on="1"/>
        <pt x="707" y="692" on="0"/>
        <pt x="549" y="750" on="0"/>
        <pt x="408" y="750" on="1"/>
        <pt x="224" y="750" on="0"/>
        <pt x="4" y="670" on="1"/>
        <pt x="-51" y="805" on="1"/>
        <pt x="40" y="848" on="0"/>
        <pt x="277" y="899" on="0"/>
        <pt x="395" y="899" on="1"/>
        <pt x="641" y="899" on="0"/>
        <pt x="879" y="795" on="0"/>
        <pt x="879" y="680" on="1"/>
        <pt x="879" y="620" on="0"/>
        <pt x="923" y="570" on="0"/>
        <pt x="1048" y="526" on="0"/>
        <pt x="1210" y="487" on="1"/>
        <pt x="1375" y="441" on="0"/>
        <pt x="1533" y="366" on="0"/>
        <pt x="1602" y="272" on="0"/>
      </contour>
    </TTGlyph>
    <TTGlyph name="glyph00017" xMin="-51" yMin="-492" xMax="1602" yMax="899">
      <contour>
        <pt x="1602" y="193" on="1"/>
        <pt x="1602" y="101" on="0"/>
        <pt x="1443" y="0" on="0"/>
        <pt x="1292" y="0" on="1"/>
        <pt x="864" y="0" on="1"/>
        <pt x="864" y="-492" on="1"/>
        <pt x="682" y="-492" on="1"/>
        <pt x="682" y="0" on="1"/>
        <pt x="358" y="0" on="1"/>
        <pt x="358" y="150" on="1"/>
        <pt x="1296" y="150" on="1"/>
        <pt x="1419" y="150" on="0"/>
        <pt x="1419" y="199" on="1"/>
        <pt x="1419" y="239" on="0"/>
        <pt x="1248" y="316" on="0"/>
        <pt x="1071" y="360" on="1"/>
        <pt x="923" y="397" on="0"/>
        <pt x="770" y="463" on="0"/>
        <pt x="707" y="544" on="0"/>
        <pt x="707" y="623" on="1"/>
        <pt x="707" y="692" on="0"/>
        <pt x="549" y="750" on="0"/>
        <pt x="408" y="750" on="1"/>
        <pt x="224" y="750" on="0"/>
        <pt x="4" y="670" on="1"/>
        <pt x="-51" y="805" on="1"/>
        <pt x="40" y="848" on="0"/>
        <pt x="277" y="899" on="0"/>
        <pt x="395" y="899" on="1"/>
        <pt x="641" y="899" on="0"/>
        <pt x="879" y="795" on="0"/>
        <pt x="879" y="680" on="1"/>
        <pt x="879" y="620" on="0"/>
        <pt x="923" y="570" on="0"/>
        <pt x="1048" y="526" on="0"/>
        <pt x="1210" y="487" on="1"/>
        <pt x="1375" y="441" on="0"/>
        <pt x="1533" y="366" on="0"/>
        <pt x="1602" y="272" on="0"/>
      </contour>
    </TTGlyph>
    <TTGlyph name="glyph00018" xMin="41" yMin="186" xMax="649" yMax="877">
      <contour>
        <pt x="41" y="336" on="1"/>
        <pt x="205" y="336" on="1"/>
        <pt x="347" y="336" on="0"/>
        <pt x="465" y="457" on="0"/>
        <pt x="465" y="596" on="1"/>
        <pt x="465" y="877" on="1"/>
        <pt x="608" y="877" on="1"/>
        <pt x="627" y="796" on="0"/>
        <pt x="649" y="620" on="0"/>
        <pt x="649" y="563" on="1"/>
        <pt x="649" y="369" on="0"/>
        <pt x="436" y="186" on="0"/>
        <pt x="209" y="186" on="1"/>
        <pt x="116" y="186" on="0"/>
        <pt x="41" y="207" on="1"/>
      </contour>
    </TTGlyph>
    <TTGlyph name="glyph00019" xMin="41" yMin="-344" xMax="846" yMax="877">
      <contour>
        <pt x="41" y="336" on="1"/>
        <pt x="344" y="336" on="1"/>
        <pt x="518" y="336" on="0"/>
        <pt x="662" y="455" on="0"/>
        <pt x="662" y="596" on="1"/>
        <pt x="662" y="877" on="1"/>
        <pt x="805" y="877" on="1"/>
        <pt x="846" y="672" on="0"/>
        <pt x="846" y="563" on="1"/>
        <pt x="846" y="384" on="0"/>
        <pt x="650" y="203" on="0"/>
        <pt x="438" y="188" on="1"/>
        <pt x="438" y="-344" on="1"/>
        <pt x="256" y="-344" on="1"/>
        <pt x="256" y="186" on="1"/>
        <pt x="149" y="189" on="0"/>
        <pt x="41" y="207" on="1"/>
      </contour>
    </TTGlyph>
    <TTGlyph name="glyph00020" xMin="41" yMin="-221" xMax="432" yMax="877">
      <contour>
        <pt x="225" y="877" on="1"/>
        <pt x="315" y="805" on="0"/>
        <pt x="432" y="548" on="0"/>
        <pt x="432" y="432" on="1"/>
        <pt x="432" y="328" on="0"/>
        <pt x="395" y="152" on="0"/>
        <pt x="323" y="-24" on="0"/>
        <pt x="213" y="-221" on="1"/>
        <pt x="41" y="-221" on="1"/>
        <pt x="159" y="-7" on="0"/>
        <pt x="250" y="289" on="0"/>
        <pt x="250" y="432" on="1"/>
        <pt x="250" y="533" on="0"/>
        <pt x="128" y="801" on="0"/>
        <pt x="43" y="877" on="1"/>
      </contour>
    </TTGlyph>
    <TTGlyph name="glyph00021" xMin="74" yMin="-182" xMax="961" yMax="956">
      <contour>
        <pt x="567" y="322" on="1"/>
        <pt x="669" y="322" on="0"/>
        <pt x="778" y="423" on="0"/>
        <pt x="778" y="516" on="1"/>
        <pt x="778" y="597" on="0"/>
        <pt x="705" y="780" on="0"/>
        <pt x="637" y="866" on="1"/>
        <pt x="784" y="956" on="1"/>
        <pt x="866" y="863" on="0"/>
        <pt x="961" y="623" on="0"/>
        <pt x="961" y="512" on="1"/>
        <pt x="961" y="352" on="0"/>
        <pt x="763" y="172" on="0"/>
        <pt x="567" y="172" on="1"/>
        <pt x="484" y="172" on="0"/>
        <pt x="424" y="205" on="1"/>
        <pt x="492" y="111" on="0"/>
        <pt x="492" y="-59" on="1"/>
        <pt x="492" y="-182" on="1"/>
        <pt x="303" y="-182" on="1"/>
        <pt x="303" y="-59" on="1"/>
        <pt x="303" y="68" on="0"/>
        <pt x="195" y="290" on="0"/>
        <pt x="74" y="403" on="1"/>
        <pt x="190" y="528" on="1"/>
        <pt x="274" y="431" on="0"/>
        <pt x="472" y="322" on="0"/>
      </contour>
    </TTGlyph>
    <TTGlyph name="glyph00022" xMin="74" yMin="-492" xMax="612" yMax="897">
      <contour>
        <pt x="88" y="-492" on="1"/>
        <pt x="318" y="-93" on="0"/>
        <pt x="383" y="156" on="1"/>
        <pt x="74" y="387" on="0"/>
        <pt x="74" y="653" on="1"/>
        <pt x="74" y="761" on="0"/>
        <pt x="218" y="897" on="0"/>
        <pt x="332" y="897" on="1"/>
        <pt x="470" y="897" on="0"/>
        <pt x="612" y="706" on="0"/>
        <pt x="612" y="516" on="1"/>
        <pt x="612" y="294" on="0"/>
        <pt x="420" y="-260" on="0"/>
        <pt x="260" y="-492" on="1"/>
      </contour>
      <contour>
        <pt x="256" y="657" on="1"/>
        <pt x="256" y="481" on="0"/>
        <pt x="422" y="350" on="1"/>
        <pt x="424" y="369" on="1"/>
        <pt x="430" y="473" on="1"/>
        <pt x="430" y="605" on="0"/>
        <pt x="379" y="748" on="0"/>
        <pt x="332" y="748" on="1"/>
        <pt x="301" y="748" on="0"/>
        <pt x="256" y="707" on="0"/>
      </contour>
    </TTGlyph>
    <TTGlyph name="glyph00023" xMin="113" yMin="-242" xMax="1602" yMax="1335">
      <contour>
        <pt x="549" y="-242" on="1"/>
        <pt x="338" y="-242" on="0"/>
        <pt x="113" y="-10" on="0"/>
        <pt x="113" y="207" on="1"/>
        <pt x="113" y="312" on="0"/>
        <pt x="168" y="514" on="0"/>
        <pt x="229" y="636" on="1"/>
        <pt x="294" y="770" on="0"/>
        <pt x="344" y="934" on="0"/>
        <pt x="344" y="1016" on="1"/>
        <pt x="344" y="1114" on="0"/>
        <pt x="290" y="1295" on="0"/>
        <pt x="244" y="1335" on="1"/>
        <pt x="424" y="1335" on="1"/>
        <pt x="463" y="1290" on="0"/>
        <pt x="514" y="1116" on="0"/>
        <pt x="514" y="1014" on="1"/>
        <pt x="514" y="917" on="0"/>
        <pt x="462" y="727" on="0"/>
        <pt x="405" y="606" on="1"/>
        <pt x="346" y="484" on="0"/>
        <pt x="295" y="299" on="0"/>
        <pt x="295" y="209" on="1"/>
        <pt x="295" y="64" on="0"/>
        <pt x="432" y="-94" on="0"/>
        <pt x="557" y="-94" on="1"/>
        <pt x="693" y="-94" on="0"/>
        <pt x="829" y="139" on="0"/>
        <pt x="829" y="385" on="1"/>
        <pt x="829" y="508" on="0"/>
        <pt x="804" y="721" on="0"/>
        <pt x="766" y="877" on="1"/>
        <pt x="946" y="877" on="1"/>
        <pt x="997" y="652" on="0"/>
        <pt x="1044" y="530" on="0"/>
        <pt x="1106" y="455" on="0"/>
        <pt x="1189" y="420" on="0"/>
        <pt x="1245" y="420" on="1"/>
        <pt x="1337" y="420" on="0"/>
        <pt x="1417" y="553" on="0"/>
        <pt x="1417" y="696" on="1"/>
        <pt x="1417" y="877" on="1"/>
        <pt x="1561" y="877" on="1"/>
        <pt x="1602" y="721" on="0"/>
        <pt x="1602" y="641" on="1"/>
        <pt x="1602" y="260" on="0"/>
        <pt x="1262" y="260" on="1"/>
        <pt x="1104" y="260" on="0"/>
        <pt x="1012" y="365" on="1"/>
        <pt x="1006" y="-242" on="0"/>
      </contour>
    </TTGlyph>
    <TTGlyph name="glyph00024" xMin="164" yMin="-492" xMax="1548" yMax="879">
      <contour>
        <pt x="164" y="166" on="1"/>
        <pt x="164" y="407" on="0"/>
        <pt x="223" y="766" on="0"/>
        <pt x="266" y="879" on="1"/>
        <pt x="438" y="879" on="1"/>
        <pt x="365" y="668" on="0"/>
        <pt x="365" y="518" on="1"/>
        <pt x="365" y="324" on="0"/>
        <pt x="563" y="324" on="1"/>
        <pt x="685" y="324" on="0"/>
        <pt x="788" y="447" on="0"/>
        <pt x="788" y="592" on="1"/>
        <pt x="788" y="879" on="1"/>
        <pt x="932" y="879" on="1"/>
        <pt x="973" y="692" on="0"/>
        <pt x="973" y="606" on="1"/>
        <pt x="973" y="453" on="0"/>
        <pt x="1056" y="324" on="0"/>
        <pt x="1163" y="324" on="1"/>
        <pt x="1272" y="324" on="0"/>
        <pt x="1364" y="445" on="0"/>
        <pt x="1364" y="592" on="1"/>
        <pt x="1364" y="879" on="1"/>
        <pt x="1507" y="879" on="1"/>
        <pt x="1548" y="700" on="0"/>
        <pt x="1548" y="590" on="1"/>
        <pt x="1548" y="370" on="0"/>
        <pt x="1375" y="174" on="0"/>
        <pt x="1176" y="174" on="1"/>
        <pt x="1053" y="174" on="0"/>
        <pt x="916" y="277" on="0"/>
        <pt x="881" y="387" on="1"/>
        <pt x="840" y="273" on="0"/>
        <pt x="697" y="174" on="0"/>
        <pt x="573" y="174" on="1"/>
        <pt x="403" y="174" on="0"/>
        <pt x="330" y="285" on="1"/>
        <pt x="335" y="239" on="1"/>
        <pt x="346" y="144" on="0"/>
        <pt x="346" y="78" on="1"/>
        <pt x="346" y="-143" on="0"/>
        <pt x="471" y="-342" on="0"/>
        <pt x="612" y="-342" on="1"/>
        <pt x="656" y="-342" on="0"/>
        <pt x="746" y="-304" on="0"/>
        <pt x="837" y="-242" on="1"/>
        <pt x="913" y="-191" on="0"/>
        <pt x="1057" y="-143" on="0"/>
        <pt x="1139" y="-143" on="1"/>
        <pt x="1291" y="-143" on="0"/>
        <pt x="1468" y="-280" on="0"/>
        <pt x="1468" y="-403" on="1"/>
        <pt x="1468" y="-434" on="0"/>
        <pt x="1448" y="-492" on="1"/>
        <pt x="1309" y="-492" on="1"/>
        <pt x="1309" y="-455" on="1"/>
        <pt x="1309" y="-368" on="0"/>
        <pt x="1213" y="-293" on="0"/>
        <pt x="1122" y="-293" on="1"/>
        <pt x="1066" y="-293" on="0"/>
        <pt x="961" y="-336" on="0"/>
        <pt x="878" y="-392" on="1"/>
        <pt x="802" y="-445" on="0"/>
        <pt x="669" y="-492" on="0"/>
        <pt x="598" y="-492" on="1"/>
        <pt x="367" y="-492" on="0"/>
        <pt x="164" y="-190" on="0"/>
      </contour>
    </TTGlyph>
    <TTGlyph name="glyph00025" xMin="174" yMin="-492" xMax="1509" yMax="879">
      <contour>
        <pt x="561" y="174" on="1"/>
        <pt x="407" y="174" on="0"/>
        <pt x="340" y="285" on="1"/>
        <pt x="345" y="239" on="1"/>
        <pt x="356" y="144" on="0"/>
        <pt x="356" y="78" on="1"/>
        <pt x="356" y="-492" on="1"/>
        <pt x="174" y="-492" on="1"/>
        <pt x="174" y="879" on="1"/>
        <pt x="317" y="879" on="1"/>
        <pt x="358" y="720" on="0"/>
        <pt x="358" y="610" on="1"/>
        <pt x="358" y="455" on="0"/>
        <pt x="444" y="324" on="0"/>
        <pt x="547" y="324" on="1"/>
        <pt x="656" y="324" on="0"/>
        <pt x="750" y="445" on="0"/>
        <pt x="750" y="590" on="1"/>
        <pt x="750" y="879" on="1"/>
        <pt x="893" y="879" on="1"/>
        <pt x="934" y="692" on="0"/>
        <pt x="934" y="604" on="1"/>
        <pt x="934" y="452" on="0"/>
        <pt x="1018" y="324" on="0"/>
        <pt x="1122" y="324" on="1"/>
        <pt x="1233" y="324" on="0"/>
        <pt x="1325" y="447" on="0"/>
        <pt x="1325" y="590" on="1"/>
        <pt x="1325" y="879" on="1"/>
        <pt x="1468" y="879" on="1"/>
        <pt x="1509" y="705" on="0"/>
        <pt x="1509" y="588" on="1"/>
        <pt x="1509" y="366" on="0"/>
        <pt x="1333" y="174" on="0"/>
        <pt x="1137" y="174" on="1"/>
        <pt x="1017" y="174" on="0"/>
        <pt x="887" y="261" on="0"/>
        <pt x="842" y="367" on="1"/>
        <pt x="799" y="260" on="0"/>
        <pt x="675" y="174" on="0"/>
      </contour>
    </TTGlyph>
    <TTGlyph name="glyph00026" xMin="113" yMin="-219" xMax="1217" yMax="899">
      <contour>
        <pt x="487" y="899" on="1"/>
        <pt x="628" y="899" on="0"/>
        <pt x="778" y="766" on="0"/>
        <pt x="778" y="641" on="1"/>
        <pt x="778" y="579" on="0"/>
        <pt x="839" y="516" on="0"/>
        <pt x="897" y="516" on="1"/>
        <pt x="969" y="516" on="0"/>
        <pt x="1034" y="604" on="0"/>
        <pt x="1034" y="694" on="1"/>
        <pt x="1034" y="879" on="1"/>
        <pt x="1176" y="879" on="1"/>
        <pt x="1217" y="738" on="0"/>
        <pt x="1217" y="662" on="1"/>
        <pt x="1217" y="519" on="0"/>
        <pt x="1058" y="367" on="0"/>
        <pt x="897" y="367" on="1"/>
        <pt x="757" y="367" on="0"/>
        <pt x="604" y="492" on="0"/>
        <pt x="604" y="608" on="1"/>
        <pt x="604" y="681" on="0"/>
        <pt x="540" y="760" on="0"/>
        <pt x="487" y="760" on="1"/>
        <pt x="389" y="760" on="0"/>
        <pt x="295" y="565" on="0"/>
        <pt x="295" y="354" on="1"/>
        <pt x="295" y="189" on="0"/>
        <pt x="398" y="-89" on="0"/>
        <pt x="508" y="-219" on="1"/>
        <pt x="328" y="-219" on="1"/>
        <pt x="113" y="14" on="0"/>
        <pt x="113" y="354" on="1"/>
        <pt x="113" y="636" on="0"/>
        <pt x="294" y="899" on="0"/>
      </contour>
    </TTGlyph>
    <TTGlyph name="glyph00027" xMin="20" yMin="-221" xMax="1124" yMax="897">
      <contour>
        <pt x="1124" y="354" on="1"/>
        <pt x="1124" y="146" on="0"/>
        <pt x="1022" y="-105" on="0"/>
        <pt x="811" y="-221" on="0"/>
        <pt x="623" y="-221" on="1"/>
        <pt x="59" y="-221" on="1"/>
        <pt x="59" y="-82" on="1"/>
        <pt x="123" y="-82" on="1"/>
        <pt x="200" y="-1" on="0"/>
        <pt x="270" y="218" on="0"/>
        <pt x="270" y="365" on="1"/>
        <pt x="270" y="475" on="0"/>
        <pt x="233" y="649" on="0"/>
        <pt x="169" y="743" on="0"/>
        <pt x="133" y="743" on="1"/>
        <pt x="93" y="743" on="0"/>
        <pt x="59" y="727" on="1"/>
        <pt x="20" y="870" on="1"/>
        <pt x="80" y="897" on="0"/>
        <pt x="154" y="897" on="1"/>
        <pt x="297" y="897" on="0"/>
        <pt x="453" y="627" on="0"/>
        <pt x="453" y="383" on="1"/>
        <pt x="453" y="234" on="0"/>
        <pt x="387" y="11" on="0"/>
        <pt x="311" y="-82" on="1"/>
        <pt x="623" y="-82" on="1"/>
        <pt x="789" y="-82" on="0"/>
        <pt x="942" y="106" on="0"/>
        <pt x="942" y="317" on="1"/>
        <pt x="942" y="877" on="1"/>
        <pt x="1085" y="877" on="1"/>
        <pt x="1100" y="786" on="0"/>
        <pt x="1124" y="479" on="0"/>
      </contour>
    </TTGlyph>
    <TTGlyph name="glyph00028" xMin="20" yMin="-492" xMax="1073" yMax="899">
      <contour>
        <pt x="883" y="-492" on="1"/>
        <pt x="891" y="-380" on="0"/>
        <pt x="891" y="-332" on="1"/>
        <pt x="891" y="-63" on="0"/>
        <pt x="788" y="-63" on="1"/>
        <pt x="764" y="-63" on="0"/>
        <pt x="726" y="-103" on="0"/>
        <pt x="672" y="-191" on="1"/>
        <pt x="592" y="-319" on="0"/>
        <pt x="444" y="-319" on="1"/>
        <pt x="350" y="-319" on="0"/>
        <pt x="238" y="-196" on="0"/>
        <pt x="238" y="-96" on="1"/>
        <pt x="238" y="11" on="0"/>
        <pt x="281" y="121" on="1"/>
        <pt x="303" y="182" on="1"/>
        <pt x="152" y="295" on="0"/>
        <pt x="20" y="522" on="0"/>
        <pt x="20" y="655" on="1"/>
        <pt x="20" y="763" on="0"/>
        <pt x="164" y="899" on="0"/>
        <pt x="279" y="899" on="1"/>
        <pt x="418" y="899" on="0"/>
        <pt x="563" y="703" on="0"/>
        <pt x="563" y="518" on="1"/>
        <pt x="563" y="431" on="0"/>
        <pt x="515" y="269" on="0"/>
        <pt x="458" y="122" on="0"/>
        <pt x="410" y="-12" on="0"/>
        <pt x="410" y="-72" on="1"/>
        <pt x="410" y="-168" on="0"/>
        <pt x="463" y="-168" on="1"/>
        <pt x="488" y="-168" on="0"/>
        <pt x="526" y="-129" on="0"/>
        <pt x="563" y="-70" on="0"/>
        <pt x="607" y="-2" on="0"/>
        <pt x="667" y="57" on="0"/>
        <pt x="750" y="96" on="0"/>
        <pt x="809" y="96" on="1"/>
        <pt x="935" y="96" on="0"/>
        <pt x="1073" y="-123" on="0"/>
        <pt x="1073" y="-313" on="1"/>
        <pt x="1073" y="-404" on="0"/>
        <pt x="1063" y="-492" on="1"/>
      </contour>
      <contour>
        <pt x="203" y="659" on="1"/>
        <pt x="203" y="565" on="0"/>
        <pt x="285" y="421" on="0"/>
        <pt x="365" y="358" on="1"/>
        <pt x="366" y="363" on="0"/>
        <pt x="372" y="390" on="0"/>
        <pt x="379" y="425" on="0"/>
        <pt x="385" y="461" on="0"/>
        <pt x="385" y="475" on="1"/>
        <pt x="385" y="602" on="0"/>
        <pt x="328" y="750" on="0"/>
        <pt x="279" y="750" on="1"/>
        <pt x="248" y="750" on="0"/>
        <pt x="203" y="709" on="0"/>
      </contour>
    </TTGlyph>
    <TTGlyph name="glyph00029" xMin="174" yMin="-283" xMax="1030" yMax="879">
      <contour>
        <pt x="356" y="580" on="1"/>
        <pt x="356" y="459" on="0"/>
        <pt x="394" y="363" on="0"/>
        <pt x="487" y="322" on="0"/>
        <pt x="584" y="322" on="1"/>
        <pt x="728" y="322" on="0"/>
        <pt x="846" y="443" on="0"/>
        <pt x="846" y="586" on="1"/>
        <pt x="846" y="879" on="1"/>
        <pt x="989" y="879" on="1"/>
        <pt x="1008" y="793" on="0"/>
        <pt x="1030" y="606" on="0"/>
        <pt x="1030" y="557" on="1"/>
        <pt x="1030" y="360" on="0"/>
        <pt x="825" y="172" on="0"/>
        <pt x="598" y="172" on="1"/>
        <pt x="442" y="172" on="0"/>
        <pt x="356" y="260" on="1"/>
        <pt x="356" y="-283" on="1"/>
        <pt x="174" y="-283" on="1"/>
        <pt x="174" y="879" on="1"/>
        <pt x="356" y="879" on="1"/>
      </contour>
    </TTGlyph>
    <TTGlyph name="glyph00030" xMin="113" yMin="-492" xMax="1423" yMax="879">
      <contour>
        <pt x="1243" y="-201" on="1"/>
        <pt x="1243" y="-10" on="0"/>
        <pt x="1081" y="-10" on="1"/>
        <pt x="1010" y="-10" on="0"/>
        <pt x="936" y="-97" on="0"/>
        <pt x="920" y="-205" on="1"/>
        <pt x="898" y="-340" on="0"/>
        <pt x="719" y="-492" on="0"/>
        <pt x="588" y="-492" on="1"/>
        <pt x="345" y="-492" on="0"/>
        <pt x="113" y="-161" on="0"/>
        <pt x="113" y="182" on="1"/>
        <pt x="113" y="345" on="0"/>
        <pt x="155" y="659" on="0"/>
        <pt x="215" y="879" on="1"/>
        <pt x="387" y="879" on="1"/>
        <pt x="387" y="834" on="1"/>
        <pt x="387" y="676" on="0"/>
        <pt x="434" y="495" on="0"/>
        <pt x="537" y="412" on="0"/>
        <pt x="631" y="412" on="1"/>
        <pt x="752" y="412" on="0"/>
        <pt x="850" y="521" on="0"/>
        <pt x="850" y="659" on="1"/>
        <pt x="850" y="879" on="1"/>
        <pt x="993" y="879" on="1"/>
        <pt x="1011" y="815" on="0"/>
        <pt x="1034" y="670" on="0"/>
        <pt x="1034" y="635" on="1"/>
        <pt x="1034" y="441" on="0"/>
        <pt x="846" y="262" on="0"/>
        <pt x="641" y="262" on="1"/>
        <pt x="500" y="262" on="0"/>
        <pt x="333" y="386" on="0"/>
        <pt x="307" y="518" on="1"/>
        <pt x="295" y="413" on="0"/>
        <pt x="295" y="203" on="1"/>
        <pt x="295" y="-66" on="0"/>
        <pt x="440" y="-342" on="0"/>
        <pt x="580" y="-342" on="1"/>
        <pt x="717" y="-342" on="0"/>
        <pt x="745" y="-156" on="1"/>
        <pt x="766" y="-20" on="0"/>
        <pt x="942" y="139" on="0"/>
        <pt x="1081" y="139" on="1"/>
        <pt x="1243" y="139" on="0"/>
        <pt x="1423" y="-44" on="0"/>
        <pt x="1423" y="-211" on="1"/>
        <pt x="1423" y="-285" on="0"/>
        <pt x="1382" y="-408" on="1"/>
        <pt x="1243" y="-408" on="1"/>
      </contour>
    </TTGlyph>
    <TTGlyph name="glyph00031" xMin="102" yMin="0" xMax="1487" yMax="899">
      <contour>
        <pt x="1032" y="311" on="1"/>
        <pt x="869" y="311" on="0"/>
        <pt x="538" y="425" on="0"/>
        <pt x="424" y="520" on="1"/>
        <pt x="432" y="475" on="0"/>
        <pt x="432" y="434" on="1"/>
        <pt x="432" y="308" on="0"/>
        <pt x="353" y="100" on="0"/>
        <pt x="274" y="0" on="1"/>
        <pt x="102" y="0" on="1"/>
        <pt x="172" y="99" on="0"/>
        <pt x="250" y="323" on="0"/>
        <pt x="250" y="434" on="1"/>
        <pt x="250" y="568" on="0"/>
        <pt x="180" y="775" on="0"/>
        <pt x="104" y="879" on="1"/>
        <pt x="295" y="879" on="1"/>
        <pt x="332" y="800" on="0"/>
        <pt x="475" y="653" on="0"/>
        <pt x="571" y="596" on="1"/>
        <pt x="642" y="740" on="0"/>
        <pt x="910" y="899" on="0"/>
        <pt x="1077" y="899" on="1"/>
        <pt x="1264" y="899" on="0"/>
        <pt x="1487" y="738" on="0"/>
        <pt x="1487" y="608" on="1"/>
        <pt x="1487" y="475" on="0"/>
        <pt x="1232" y="311" on="0"/>
      </contour>
      <contour>
        <pt x="1069" y="750" on="1"/>
        <pt x="947" y="750" on="0"/>
        <pt x="762" y="629" on="0"/>
        <pt x="723" y="520" on="1"/>
        <pt x="875" y="461" on="0"/>
        <pt x="1030" y="461" on="1"/>
        <pt x="1154" y="461" on="0"/>
        <pt x="1305" y="544" on="0"/>
        <pt x="1305" y="608" on="1"/>
        <pt x="1305" y="674" on="0"/>
        <pt x="1183" y="750" on="0"/>
      </contour>
    </TTGlyph>
    <TTGlyph name="glyph00032" xMin="113" yMin="-240" xMax="1118" yMax="1337">
      <contour>
        <pt x="600" y="-240" on="1"/>
        <pt x="361" y="-238" on="0"/>
        <pt x="113" y="-6" on="0"/>
        <pt x="113" y="209" on="1"/>
        <pt x="113" y="314" on="0"/>
        <pt x="204" y="523" on="0"/>
        <pt x="294" y="638" on="1"/>
        <pt x="390" y="761" on="0"/>
        <pt x="475" y="934" on="0"/>
        <pt x="475" y="1018" on="1"/>
        <pt x="475" y="1110" on="0"/>
        <pt x="397" y="1283" on="0"/>
        <pt x="334" y="1337" on="1"/>
        <pt x="524" y="1337" on="1"/>
        <pt x="645" y="1199" on="0"/>
        <pt x="645" y="1016" on="1"/>
        <pt x="645" y="919" on="0"/>
        <pt x="560" y="726" on="0"/>
        <pt x="470" y="608" on="1"/>
        <pt x="378" y="485" on="0"/>
        <pt x="295" y="301" on="0"/>
        <pt x="295" y="211" on="1"/>
        <pt x="295" y="68" on="0"/>
        <pt x="457" y="-92" on="0"/>
        <pt x="610" y="-92" on="1"/>
        <pt x="936" y="-92" on="0"/>
        <pt x="936" y="315" on="1"/>
        <pt x="936" y="451" on="0"/>
        <pt x="886" y="699" on="0"/>
        <pt x="811" y="879" on="1"/>
        <pt x="991" y="879" on="1"/>
        <pt x="1118" y="631" on="0"/>
        <pt x="1118" y="324" on="1"/>
        <pt x="1118" y="46" on="0"/>
        <pt x="857" y="-240" on="0"/>
      </contour>
    </TTGlyph>
    <TTGlyph name="glyph00033" xMin="-819" yMin="-492" xMax="719" yMax="901">
      <contour>
        <pt x="68" y="-342" on="1"/>
        <pt x="192" y="-342" on="0"/>
        <pt x="367" y="-301" on="0"/>
        <pt x="479" y="-226" on="0"/>
        <pt x="537" y="-101" on="0"/>
        <pt x="537" y="14" on="1"/>
        <pt x="537" y="172" on="1"/>
        <pt x="312" y="180" on="0"/>
        <pt x="113" y="327" on="0"/>
        <pt x="113" y="483" on="1"/>
        <pt x="113" y="589" on="0"/>
        <pt x="187" y="790" on="0"/>
        <pt x="311" y="901" on="0"/>
        <pt x="389" y="901" on="1"/>
        <pt x="551" y="901" on="0"/>
        <pt x="719" y="455" on="0"/>
        <pt x="719" y="29" on="1"/>
        <pt x="719" y="-238" on="0"/>
        <pt x="407" y="-492" on="0"/>
        <pt x="100" y="-492" on="1"/>
        <pt x="-819" y="-492" on="1"/>
        <pt x="-819" y="-342" on="1"/>
      </contour>
      <contour>
        <pt x="295" y="492" on="1"/>
        <pt x="295" y="412" on="0"/>
        <pt x="414" y="331" on="0"/>
        <pt x="530" y="322" on="1"/>
        <pt x="510" y="530" on="0"/>
        <pt x="434" y="752" on="0"/>
        <pt x="389" y="752" on="1"/>
        <pt x="354" y="752" on="0"/>
        <pt x="295" y="594" on="0"/>
      </contour>
    </TTGlyph>
    <TTGlyph name="glyph00034" xMin="164" yMin="-121" xMax="1010" yMax="1556">
      <contour>
        <pt x="164" y="668" on="1"/>
        <pt x="164" y="1111" on="0"/>
        <pt x="372" y="1556" on="0"/>
        <pt x="590" y="1556" on="1"/>
        <pt x="687" y="1556" on="0"/>
        <pt x="748" y="1532" on="1"/>
        <pt x="748" y="1386" on="1"/>
        <pt x="683" y="1407" on="0"/>
        <pt x="612" y="1407" on="1"/>
        <pt x="346" y="1407" on="0"/>
        <pt x="346" y="674" on="1"/>
        <pt x="346" y="503" on="0"/>
        <pt x="369" y="324" on="0"/>
        <pt x="399" y="324" on="1"/>
        <pt x="439" y="324" on="0"/>
        <pt x="482" y="393" on="1"/>
        <pt x="522" y="456" on="1"/>
        <pt x="605" y="588" on="0"/>
        <pt x="745" y="588" on="1"/>
        <pt x="871" y="588" on="0"/>
        <pt x="1010" y="368" on="0"/>
        <pt x="1010" y="178" on="1"/>
        <pt x="1010" y="12" on="0"/>
        <pt x="981" y="-121" on="1"/>
        <pt x="805" y="-121" on="1"/>
        <pt x="827" y="11" on="0"/>
        <pt x="827" y="160" on="1"/>
        <pt x="827" y="428" on="0"/>
        <pt x="725" y="428" on="1"/>
        <pt x="701" y="428" on="0"/>
        <pt x="663" y="388" on="0"/>
        <pt x="609" y="300" on="1"/>
        <pt x="529" y="172" on="0"/>
        <pt x="381" y="172" on="1"/>
        <pt x="262" y="172" on="0"/>
        <pt x="164" y="411" on="0"/>
      </contour>
    </TTGlyph>
    <TTGlyph name="glyph00035" xMin="102" yMin="-492" xMax="1632" yMax="899">
      <contour>
        <pt x="248" y="434" on="1"/>
        <pt x="248" y="568" on="0"/>
        <pt x="178" y="775" on="0"/>
        <pt x="102" y="879" on="1"/>
        <pt x="293" y="879" on="1"/>
        <pt x="330" y="800" on="0"/>
        <pt x="473" y="653" on="0"/>
        <pt x="569" y="596" on="1"/>
        <pt x="607" y="674" on="0"/>
        <pt x="770" y="816" on="0"/>
        <pt x="973" y="899" on="0"/>
        <pt x="1075" y="899" on="1"/>
        <pt x="1262" y="899" on="0"/>
        <pt x="1485" y="738" on="0"/>
        <pt x="1485" y="608" on="1"/>
        <pt x="1485" y="475" on="0"/>
        <pt x="1230" y="311" on="0"/>
        <pt x="1030" y="311" on="1"/>
        <pt x="867" y="311" on="0"/>
        <pt x="536" y="425" on="0"/>
        <pt x="422" y="520" on="1"/>
        <pt x="430" y="475" on="0"/>
        <pt x="430" y="434" on="1"/>
        <pt x="430" y="397" on="0"/>
        <pt x="412" y="260" on="1"/>
        <pt x="393" y="123" on="0"/>
        <pt x="393" y="90" on="1"/>
        <pt x="393" y="-203" on="0"/>
        <pt x="631" y="-203" on="1"/>
        <pt x="692" y="-203" on="0"/>
        <pt x="824" y="-141" on="0"/>
        <pt x="917" y="-73" on="1"/>
        <pt x="1094" y="57" on="0"/>
        <pt x="1255" y="57" on="1"/>
        <pt x="1441" y="57" on="0"/>
        <pt x="1632" y="-106" on="0"/>
        <pt x="1632" y="-258" on="1"/>
        <pt x="1632" y="-315" on="0"/>
        <pt x="1588" y="-453" on="0"/>
        <pt x="1563" y="-492" on="1"/>
        <pt x="1386" y="-492" on="1"/>
        <pt x="1414" y="-441" on="0"/>
        <pt x="1450" y="-342" on="0"/>
        <pt x="1450" y="-281" on="1"/>
        <pt x="1450" y="-102" on="0"/>
        <pt x="1239" y="-102" on="1"/>
        <pt x="1176" y="-102" on="0"/>
        <pt x="1044" y="-166" on="0"/>
        <pt x="961" y="-232" on="1"/>
        <pt x="794" y="-362" on="0"/>
        <pt x="625" y="-362" on="1"/>
        <pt x="409" y="-362" on="0"/>
        <pt x="211" y="-135" on="0"/>
        <pt x="211" y="106" on="1"/>
        <pt x="211" y="129" on="0"/>
        <pt x="217" y="173" on="1"/>
        <pt x="248" y="400" on="0"/>
      </contour>
      <contour>
        <pt x="1067" y="750" on="1"/>
        <pt x="957" y="750" on="0"/>
        <pt x="754" y="612" on="0"/>
        <pt x="721" y="520" on="1"/>
        <pt x="873" y="461" on="0"/>
        <pt x="1028" y="461" on="1"/>
        <pt x="1152" y="461" on="0"/>
        <pt x="1303" y="544" on="0"/>
        <pt x="1303" y="608" on="1"/>
        <pt x="1303" y="674" on="0"/>
        <pt x="1181" y="750" on="0"/>
      </contour>
    </TTGlyph>
    <TTGlyph name="glyph00036" xMin="133" yMin="-242" xMax="1180" yMax="899">
      <contour>
        <pt x="334" y="193" on="1"/>
        <pt x="399" y="-94" on="0"/>
        <pt x="608" y="-94" on="1"/>
        <pt x="803" y="-94" on="0"/>
        <pt x="997" y="141" on="0"/>
        <pt x="997" y="387" on="1"/>
        <pt x="997" y="879" on="1"/>
        <pt x="1180" y="879" on="1"/>
        <pt x="1180" y="379" on="1"/>
        <pt x="1180" y="61" on="0"/>
        <pt x="895" y="-242" on="0"/>
        <pt x="608" y="-242" on="1"/>
        <pt x="375" y="-242" on="0"/>
        <pt x="133" y="97" on="0"/>
        <pt x="133" y="422" on="1"/>
        <pt x="133" y="559" on="0"/>
        <pt x="209" y="778" on="0"/>
        <pt x="341" y="899" on="0"/>
        <pt x="420" y="899" on="1"/>
        <pt x="553" y="899" on="0"/>
        <pt x="709" y="646" on="0"/>
        <pt x="709" y="428" on="1"/>
        <pt x="709" y="304" on="0"/>
        <pt x="569" y="193" on="0"/>
        <pt x="428" y="193" on="1"/>
      </contour>
      <contour>
        <pt x="315" y="410" on="1"/>
        <pt x="315" y="372" on="1"/>
        <pt x="317" y="332" on="1"/>
        <pt x="408" y="332" on="1"/>
        <pt x="473" y="332" on="0"/>
        <pt x="526" y="384" on="0"/>
        <pt x="526" y="432" on="1"/>
        <pt x="526" y="584" on="0"/>
        <pt x="473" y="750" on="0"/>
        <pt x="422" y="750" on="1"/>
        <pt x="371" y="750" on="0"/>
        <pt x="315" y="571" on="0"/>
      </contour>
    </TTGlyph>
    <TTGlyph name="glyph00037" xMin="133" yMin="-242" xMax="1180" yMax="1556">
      <contour>
        <pt x="315" y="410" on="1"/>
        <pt x="315" y="372" on="1"/>
        <pt x="317" y="332" on="1"/>
        <pt x="408" y="332" on="1"/>
        <pt x="473" y="332" on="0"/>
        <pt x="526" y="384" on="0"/>
        <pt x="526" y="432" on="1"/>
        <pt x="526" y="584" on="0"/>
        <pt x="473" y="750" on="0"/>
        <pt x="422" y="750" on="1"/>
        <pt x="371" y="750" on="0"/>
        <pt x="315" y="571" on="0"/>
      </contour>
      <contour>
        <pt x="1180" y="477" on="1"/>
        <pt x="1180" y="113" on="0"/>
        <pt x="901" y="-242" on="0"/>
        <pt x="608" y="-242" on="1"/>
        <pt x="375" y="-242" on="0"/>
        <pt x="133" y="97" on="0"/>
        <pt x="133" y="422" on="1"/>
        <pt x="133" y="559" on="0"/>
        <pt x="209" y="778" on="0"/>
        <pt x="341" y="899" on="0"/>
        <pt x="420" y="899" on="1"/>
        <pt x="553" y="899" on="0"/>
        <pt x="709" y="646" on="0"/>
        <pt x="709" y="428" on="1"/>
        <pt x="709" y="304" on="0"/>
        <pt x="569" y="193" on="0"/>
        <pt x="428" y="193" on="1"/>
        <pt x="334" y="193" on="1"/>
        <pt x="399" y="-92" on="0"/>
        <pt x="608" y="-92" on="1"/>
        <pt x="809" y="-92" on="0"/>
        <pt x="997" y="182" on="0"/>
        <pt x="997" y="477" on="1"/>
        <pt x="997" y="842" on="0"/>
        <pt x="946" y="1233" on="0"/>
        <pt x="834" y="1407" on="0"/>
        <pt x="731" y="1407" on="1"/>
        <pt x="661" y="1407" on="0"/>
        <pt x="596" y="1386" on="1"/>
        <pt x="596" y="1532" on="1"/>
        <pt x="657" y="1556" on="0"/>
        <pt x="754" y="1556" on="1"/>
        <pt x="922" y="1556" on="0"/>
        <pt x="1101" y="1352" on="0"/>
        <pt x="1180" y="894" on="0"/>
      </contour>
    </TTGlyph>
    <TTGlyph name="glyph00038" xMin="-1516" yMin="-492" xMax="451" yMax="879">
      <contour>
        <pt x="430" y="879" on="1"/>
        <pt x="391" y="756" on="0"/>
        <pt x="371" y="628" on="0"/>
        <pt x="371" y="535" on="1"/>
        <pt x="371" y="445" on="0"/>
        <pt x="396" y="300" on="0"/>
        <pt x="426" y="170" on="0"/>
        <pt x="451" y="42" on="0"/>
        <pt x="451" y="-31" on="1"/>
        <pt x="451" y="-254" on="0"/>
        <pt x="143" y="-492" on="0"/>
        <pt x="-172" y="-492" on="1"/>
        <pt x="-1516" y="-492" on="1"/>
        <pt x="-1516" y="-342" on="1"/>
        <pt x="-205" y="-342" on="1"/>
        <pt x="35" y="-342" on="0"/>
        <pt x="262" y="-180" on="0"/>
        <pt x="262" y="-12" on="1"/>
        <pt x="262" y="44" on="0"/>
        <pt x="239" y="158" on="0"/>
        <pt x="211" y="288" on="0"/>
        <pt x="188" y="443" on="0"/>
        <pt x="188" y="541" on="1"/>
        <pt x="188" y="616" on="0"/>
        <pt x="218" y="766" on="0"/>
        <pt x="256" y="879" on="1"/>
      </contour>
    </TTGlyph>
    <TTGlyph name="glyph00039" xMin="133" yMin="-242" xMax="2071" yMax="1130">
      <contour>
        <pt x="584" y="-242" on="1"/>
        <pt x="358" y="-242" on="0"/>
        <pt x="133" y="85" on="0"/>
        <pt x="133" y="422" on="1"/>
        <pt x="133" y="559" on="0"/>
        <pt x="209" y="778" on="0"/>
        <pt x="341" y="899" on="0"/>
        <pt x="420" y="899" on="1"/>
        <pt x="553" y="899" on="0"/>
        <pt x="709" y="646" on="0"/>
        <pt x="709" y="428" on="1"/>
        <pt x="709" y="304" on="0"/>
        <pt x="569" y="193" on="0"/>
        <pt x="428" y="193" on="1"/>
        <pt x="330" y="193" on="1"/>
        <pt x="354" y="50" on="0"/>
        <pt x="488" y="-94" on="0"/>
        <pt x="592" y="-94" on="1"/>
        <pt x="754" y="-94" on="0"/>
        <pt x="895" y="135" on="0"/>
        <pt x="895" y="385" on="1"/>
        <pt x="895" y="879" on="1"/>
        <pt x="1077" y="879" on="1"/>
        <pt x="1077" y="283" on="1"/>
        <pt x="1077" y="-92" on="0"/>
        <pt x="1311" y="-92" on="1"/>
        <pt x="1428" y="-92" on="0"/>
        <pt x="1559" y="64" on="0"/>
        <pt x="1559" y="203" on="1"/>
        <pt x="1559" y="264" on="0"/>
        <pt x="1536" y="371" on="0"/>
        <pt x="1509" y="472" on="0"/>
        <pt x="1487" y="572" on="0"/>
        <pt x="1487" y="627" on="1"/>
        <pt x="1487" y="846" on="0"/>
        <pt x="1739" y="1114" on="0"/>
        <pt x="1970" y="1130" on="1"/>
        <pt x="2071" y="997" on="1"/>
        <pt x="1875" y="997" on="0"/>
        <pt x="1669" y="812" on="0"/>
        <pt x="1669" y="631" on="1"/>
        <pt x="1669" y="581" on="0"/>
        <pt x="1691" y="489" on="0"/>
        <pt x="1718" y="389" on="0"/>
        <pt x="1741" y="273" on="0"/>
        <pt x="1741" y="199" on="1"/>
        <pt x="1741" y="-7" on="0"/>
        <pt x="1509" y="-242" on="0"/>
        <pt x="1298" y="-242" on="1"/>
        <pt x="1179" y="-242" on="0"/>
        <pt x="1026" y="-143" on="0"/>
        <pt x="967" y="-29" on="1"/>
        <pt x="897" y="-144" on="0"/>
        <pt x="726" y="-242" on="0"/>
      </contour>
      <contour>
        <pt x="315" y="332" on="1"/>
        <pt x="408" y="332" on="1"/>
        <pt x="473" y="332" on="0"/>
        <pt x="526" y="384" on="0"/>
        <pt x="526" y="432" on="1"/>
        <pt x="526" y="584" on="0"/>
        <pt x="473" y="750" on="0"/>
        <pt x="422" y="750" on="1"/>
        <pt x="371" y="750" on="0"/>
        <pt x="315" y="571" on="0"/>
        <pt x="315" y="410" on="1"/>
      </contour>
    </TTGlyph>
    <TTGlyph name="glyph00040" xMin="102" yMin="-492" xMax="530" yMax="897">
      <contour>
        <pt x="102" y="897" on="1"/>
        <pt x="303" y="897" on="0"/>
        <pt x="530" y="695" on="0"/>
        <pt x="530" y="518" on="1"/>
        <pt x="530" y="404" on="0"/>
        <pt x="431" y="248" on="0"/>
        <pt x="315" y="205" on="1"/>
        <pt x="428" y="151" on="0"/>
        <pt x="530" y="-3" on="0"/>
        <pt x="530" y="-109" on="1"/>
        <pt x="530" y="-273" on="0"/>
        <pt x="359" y="-455" on="0"/>
        <pt x="182" y="-492" on="1"/>
        <pt x="123" y="-346" on="1"/>
        <pt x="249" y="-316" on="0"/>
        <pt x="342" y="-206" on="0"/>
        <pt x="342" y="-106" on="1"/>
        <pt x="342" y="131" on="0"/>
        <pt x="102" y="131" on="1"/>
        <pt x="102" y="291" on="1"/>
        <pt x="239" y="297" on="0"/>
        <pt x="342" y="394" on="0"/>
        <pt x="342" y="516" on="1"/>
        <pt x="342" y="737" on="0"/>
        <pt x="102" y="737" on="1"/>
      </contour>
    </TTGlyph>
    <TTGlyph name="glyph00041" xMin="20" yMin="-242" xMax="1358" yMax="877">
      <contour>
        <pt x="422" y="877" on="1"/>
        <pt x="602" y="877" on="1"/>
        <pt x="602" y="283" on="1"/>
        <pt x="602" y="-92" on="0"/>
        <pt x="881" y="-92" on="1"/>
        <pt x="1025" y="-92" on="0"/>
        <pt x="1176" y="76" on="0"/>
        <pt x="1176" y="231" on="1"/>
        <pt x="1176" y="289" on="0"/>
        <pt x="1153" y="385" on="0"/>
        <pt x="1126" y="477" on="0"/>
        <pt x="1104" y="570" on="0"/>
        <pt x="1104" y="625" on="1"/>
        <pt x="1104" y="751" on="0"/>
        <pt x="1176" y="877" on="1"/>
        <pt x="1358" y="877" on="1"/>
        <pt x="1326" y="826" on="0"/>
        <pt x="1286" y="684" on="0"/>
        <pt x="1286" y="629" on="1"/>
        <pt x="1286" y="579" on="0"/>
        <pt x="1308" y="489" on="0"/>
        <pt x="1335" y="395" on="0"/>
        <pt x="1358" y="292" on="0"/>
        <pt x="1358" y="229" on="1"/>
        <pt x="1358" y="5" on="0"/>
        <pt x="1105" y="-242" on="0"/>
        <pt x="866" y="-242" on="1"/>
        <pt x="646" y="-242" on="0"/>
        <pt x="422" y="8" on="0"/>
        <pt x="422" y="276" on="1"/>
        <pt x="422" y="377" on="1"/>
        <pt x="336" y="295" on="0"/>
        <pt x="199" y="295" on="1"/>
        <pt x="107" y="295" on="0"/>
        <pt x="20" y="315" on="1"/>
        <pt x="20" y="444" on="1"/>
        <pt x="195" y="444" on="1"/>
        <pt x="316" y="444" on="0"/>
        <pt x="422" y="598" on="0"/>
        <pt x="422" y="772" on="1"/>
      </contour>
    </TTGlyph>
    <TTGlyph name="glyph00042" xMin="102" yMin="-492" xMax="530" yMax="899">
      <contour>
        <pt x="123" y="-492" on="1"/>
        <pt x="123" y="-166" on="1"/>
        <pt x="246" y="-143" on="0"/>
        <pt x="342" y="-59" on="0"/>
        <pt x="342" y="18" on="1"/>
        <pt x="342" y="203" on="0"/>
        <pt x="102" y="203" on="1"/>
        <pt x="102" y="340" on="1"/>
        <pt x="237" y="344" on="0"/>
        <pt x="342" y="433" on="0"/>
        <pt x="342" y="543" on="1"/>
        <pt x="342" y="739" on="0"/>
        <pt x="102" y="739" on="1"/>
        <pt x="102" y="899" on="1"/>
        <pt x="303" y="899" on="0"/>
        <pt x="530" y="717" on="0"/>
        <pt x="530" y="555" on="1"/>
        <pt x="530" y="452" on="0"/>
        <pt x="431" y="309" on="0"/>
        <pt x="315" y="268" on="1"/>
        <pt x="415" y="230" on="0"/>
        <pt x="530" y="109" on="0"/>
        <pt x="530" y="12" on="1"/>
        <pt x="530" y="-179" on="0"/>
        <pt x="305" y="-266" on="1"/>
        <pt x="305" y="-492" on="1"/>
      </contour>
    </TTGlyph>
    <TTGlyph name="glyph00043" xMin="174" yMin="-221" xMax="356" yMax="877">
      <contour>
        <pt x="356" y="-221" on="1"/>
        <pt x="174" y="-221" on="1"/>
        <pt x="174" y="877" on="1"/>
        <pt x="356" y="877" on="1"/>
      </contour>
    </TTGlyph>
    <TTGlyph name="glyph00044" xMin="-102" yMin="-492" xMax="653" yMax="1556">
      <contour>
        <pt x="-102" y="1556" on="1"/>
        <pt x="68" y="1556" on="1"/>
        <pt x="184" y="1437" on="0"/>
        <pt x="308" y="1176" on="0"/>
        <pt x="367" y="819" on="0"/>
        <pt x="367" y="563" on="1"/>
        <pt x="367" y="257" on="0"/>
        <pt x="411" y="-78" on="0"/>
        <pt x="520" y="-328" on="0"/>
        <pt x="653" y="-492" on="1"/>
        <pt x="485" y="-492" on="1"/>
        <pt x="367" y="-379" on="0"/>
        <pt x="240" y="-106" on="0"/>
        <pt x="184" y="275" on="0"/>
        <pt x="184" y="561" on="1"/>
        <pt x="184" y="859" on="0"/>
        <pt x="138" y="1175" on="0"/>
        <pt x="23" y="1408" on="0"/>
      </contour>
    </TTGlyph>
    <TTGlyph name="glyph00045" xMin="76" yMin="-492" xMax="1831" yMax="879">
      <contour>
        <pt x="440" y="0" on="1"/>
        <pt x="258" y="0" on="1"/>
        <pt x="258" y="-205" on="1"/>
        <pt x="76" y="-205" on="1"/>
        <pt x="76" y="160" on="1"/>
        <pt x="424" y="160" on="1"/>
        <pt x="410" y="283" on="0"/>
        <pt x="410" y="561" on="1"/>
        <pt x="410" y="879" on="1"/>
        <pt x="592" y="879" on="1"/>
        <pt x="592" y="866" on="1"/>
        <pt x="592" y="669" on="0"/>
        <pt x="697" y="516" on="0"/>
        <pt x="823" y="516" on="1"/>
        <pt x="905" y="516" on="0"/>
        <pt x="994" y="548" on="0"/>
        <pt x="1034" y="618" on="0"/>
        <pt x="1034" y="694" on="1"/>
        <pt x="1034" y="879" on="1"/>
        <pt x="1178" y="879" on="1"/>
        <pt x="1195" y="841" on="0"/>
        <pt x="1219" y="723" on="0"/>
        <pt x="1219" y="680" on="1"/>
        <pt x="1219" y="605" on="0"/>
        <pt x="1328" y="526" on="0"/>
        <pt x="1436" y="526" on="1"/>
        <pt x="1522" y="526" on="0"/>
        <pt x="1609" y="555" on="0"/>
        <pt x="1647" y="620" on="0"/>
        <pt x="1647" y="694" on="1"/>
        <pt x="1647" y="879" on="1"/>
        <pt x="1790" y="879" on="1"/>
        <pt x="1831" y="738" on="0"/>
        <pt x="1831" y="662" on="1"/>
        <pt x="1831" y="548" on="0"/>
        <pt x="1752" y="427" on="0"/>
        <pt x="1582" y="367" on="0"/>
        <pt x="1442" y="367" on="1"/>
        <pt x="1344" y="367" on="0"/>
        <pt x="1178" y="428" on="0"/>
        <pt x="1130" y="487" on="1"/>
        <pt x="1094" y="435" on="0"/>
        <pt x="1024" y="389" on="0"/>
        <pt x="919" y="367" on="0"/>
        <pt x="842" y="367" on="1"/>
        <pt x="685" y="367" on="0"/>
        <pt x="592" y="434" on="1"/>
        <pt x="592" y="284" on="0"/>
        <pt x="608" y="160" on="1"/>
        <pt x="1286" y="160" on="1"/>
        <pt x="1286" y="0" on="1"/>
        <pt x="627" y="0" on="1"/>
        <pt x="658" y="-132" on="0"/>
        <pt x="777" y="-369" on="0"/>
        <pt x="879" y="-492" on="1"/>
        <pt x="711" y="-492" on="1"/>
        <pt x="502" y="-292" on="0"/>
      </contour>
    </TTGlyph>
    <TTGlyph name="glyph00046" xMin="41" yMin="172" xMax="852" yMax="1556">
      <contour>
        <pt x="41" y="879" on="1"/>
        <pt x="176" y="879" on="1"/>
        <pt x="187" y="1191" on="0"/>
        <pt x="405" y="1556" on="0"/>
        <pt x="600" y="1556" on="1"/>
        <pt x="697" y="1556" on="0"/>
        <pt x="758" y="1532" on="1"/>
        <pt x="758" y="1386" on="1"/>
        <pt x="693" y="1407" on="0"/>
        <pt x="623" y="1407" on="1"/>
        <pt x="505" y="1407" on="0"/>
        <pt x="356" y="1118" on="0"/>
        <pt x="356" y="879" on="1"/>
        <pt x="549" y="879" on="1"/>
        <pt x="695" y="879" on="0"/>
        <pt x="852" y="751" on="0"/>
        <pt x="852" y="625" on="1"/>
        <pt x="852" y="521" on="0"/>
        <pt x="751" y="299" on="0"/>
        <pt x="595" y="172" on="0"/>
        <pt x="512" y="172" on="1"/>
        <pt x="419" y="172" on="0"/>
        <pt x="268" y="312" on="0"/>
        <pt x="180" y="567" on="0"/>
        <pt x="174" y="739" on="1"/>
        <pt x="41" y="739" on="1"/>
      </contour>
      <contour>
        <pt x="356" y="739" on="1"/>
        <pt x="356" y="628" on="0"/>
        <pt x="399" y="434" on="0"/>
        <pt x="473" y="322" on="0"/>
        <pt x="514" y="322" on="1"/>
        <pt x="570" y="322" on="0"/>
        <pt x="670" y="510" on="0"/>
        <pt x="670" y="621" on="1"/>
        <pt x="670" y="670" on="0"/>
        <pt x="599" y="739" on="0"/>
        <pt x="541" y="739" on="1"/>
      </contour>
    </TTGlyph>
    <TTGlyph name="glyph00047" xMin="41" yMin="-233" xMax="852" yMax="1556">
      <contour>
        <pt x="41" y="879" on="1"/>
        <pt x="176" y="879" on="1"/>
        <pt x="187" y="1191" on="0"/>
        <pt x="405" y="1556" on="0"/>
        <pt x="600" y="1556" on="1"/>
        <pt x="697" y="1556" on="0"/>
        <pt x="758" y="1532" on="1"/>
        <pt x="758" y="1386" on="1"/>
        <pt x="693" y="1407" on="0"/>
        <pt x="623" y="1407" on="1"/>
        <pt x="505" y="1407" on="0"/>
        <pt x="356" y="1118" on="0"/>
        <pt x="356" y="879" on="1"/>
        <pt x="549" y="879" on="1"/>
        <pt x="695" y="879" on="0"/>
        <pt x="852" y="751" on="0"/>
        <pt x="852" y="625" on="1"/>
        <pt x="852" y="539" on="0"/>
        <pt x="779" y="349" on="0"/>
        <pt x="654" y="207" on="0"/>
        <pt x="582" y="182" on="1"/>
        <pt x="566" y="167" on="0"/>
        <pt x="539" y="112" on="0"/>
        <pt x="539" y="84" on="1"/>
        <pt x="539" y="14" on="0"/>
        <pt x="624" y="-102" on="0"/>
        <pt x="690" y="-121" on="1"/>
        <pt x="639" y="-233" on="1"/>
        <pt x="523" y="-213" on="0"/>
        <pt x="387" y="-51" on="0"/>
        <pt x="387" y="74" on="1"/>
        <pt x="387" y="140" on="0"/>
        <pt x="418" y="190" on="1"/>
        <pt x="309" y="240" on="0"/>
        <pt x="181" y="528" on="0"/>
        <pt x="174" y="739" on="1"/>
        <pt x="41" y="739" on="1"/>
      </contour>
      <contour>
        <pt x="356" y="739" on="1"/>
        <pt x="356" y="628" on="0"/>
        <pt x="399" y="434" on="0"/>
        <pt x="473" y="322" on="0"/>
        <pt x="514" y="322" on="1"/>
        <pt x="570" y="322" on="0"/>
        <pt x="670" y="510" on="0"/>
        <pt x="670" y="621" on="1"/>
        <pt x="670" y="670" on="0"/>
        <pt x="599" y="739" on="0"/>
        <pt x="541" y="739" on="1"/>
      </contour>
    </TTGlyph>
    <TTGlyph name="glyph00048" xMin="20" yMin="-283" xMax="1575" yMax="897">
      <contour>
        <pt x="907" y="-242" on="1"/>
        <pt x="667" y="-242" on="0"/>
        <pt x="385" y="30" on="0"/>
        <pt x="373" y="272" on="1"/>
        <pt x="322" y="303" on="0"/>
        <pt x="264" y="303" on="1"/>
        <pt x="201" y="303" on="0"/>
        <pt x="147" y="242" on="0"/>
        <pt x="147" y="197" on="1"/>
        <pt x="147" y="147" on="0"/>
        <pt x="172" y="94" on="1"/>
        <pt x="51" y="63" on="1"/>
        <pt x="20" y="122" on="0"/>
        <pt x="20" y="199" on="1"/>
        <pt x="20" y="296" on="0"/>
        <pt x="141" y="410" on="0"/>
        <pt x="254" y="410" on="1"/>
        <pt x="316" y="410" on="0"/>
        <pt x="375" y="385" on="1"/>
        <pt x="401" y="628" on="0"/>
        <pt x="788" y="897" on="0"/>
        <pt x="1112" y="897" on="1"/>
        <pt x="1360" y="897" on="0"/>
        <pt x="1575" y="811" on="1"/>
        <pt x="1511" y="664" on="1"/>
        <pt x="1404" y="709" on="0"/>
        <pt x="1214" y="748" on="0"/>
        <pt x="1112" y="748" on="1"/>
        <pt x="836" y="748" on="0"/>
        <pt x="559" y="535" on="0"/>
        <pt x="559" y="315" on="1"/>
        <pt x="559" y="123" on="0"/>
        <pt x="737" y="-92" on="0"/>
        <pt x="903" y="-92" on="1"/>
        <pt x="993" y="-92" on="0"/>
        <pt x="1100" y="-75" on="1"/>
        <pt x="1207" y="-59" on="0"/>
        <pt x="1270" y="-59" on="1"/>
        <pt x="1383" y="-59" on="0"/>
        <pt x="1470" y="-119" on="1"/>
        <pt x="1470" y="-283" on="1"/>
        <pt x="1390" y="-211" on="0"/>
        <pt x="1260" y="-211" on="1"/>
        <pt x="1213" y="-211" on="0"/>
        <pt x="1102" y="-226" on="1"/>
        <pt x="990" y="-242" on="0"/>
      </contour>
    </TTGlyph>
    <TTGlyph name="glyph00049" xMin="-14" yMin="-492" xMax="2003" yMax="879">
      <contour>
        <pt x="356" y="317" on="1"/>
        <pt x="356" y="44" on="0"/>
        <pt x="259" y="-343" on="0"/>
        <pt x="154" y="-492" on="1"/>
        <pt x="-14" y="-492" on="1"/>
        <pt x="68" y="-338" on="0"/>
        <pt x="143" y="-112" on="0"/>
        <pt x="174" y="164" on="0"/>
        <pt x="174" y="362" on="1"/>
        <pt x="174" y="879" on="1"/>
        <pt x="317" y="879" on="1"/>
        <pt x="336" y="851" on="0"/>
        <pt x="358" y="772" on="0"/>
        <pt x="358" y="743" on="1"/>
        <pt x="358" y="666" on="0"/>
        <pt x="414" y="600" on="0"/>
        <pt x="485" y="600" on="1"/>
        <pt x="557" y="600" on="0"/>
        <pt x="618" y="679" on="0"/>
        <pt x="618" y="766" on="1"/>
        <pt x="618" y="879" on="1"/>
        <pt x="760" y="879" on="1"/>
        <pt x="776" y="852" on="0"/>
        <pt x="801" y="761" on="0"/>
        <pt x="801" y="727" on="1"/>
        <pt x="801" y="672" on="0"/>
        <pt x="867" y="610" on="0"/>
        <pt x="928" y="610" on="1"/>
        <pt x="982" y="610" on="0"/>
        <pt x="1042" y="648" on="0"/>
        <pt x="1087" y="742" on="0"/>
        <pt x="1122" y="879" on="1"/>
        <pt x="1303" y="879" on="1"/>
        <pt x="1266" y="726" on="0"/>
        <pt x="1239" y="516" on="0"/>
        <pt x="1239" y="387" on="1"/>
        <pt x="1239" y="141" on="0"/>
        <pt x="1384" y="-92" on="0"/>
        <pt x="1530" y="-92" on="1"/>
        <pt x="1675" y="-92" on="0"/>
        <pt x="1821" y="141" on="0"/>
        <pt x="1821" y="387" on="1"/>
        <pt x="1821" y="515" on="0"/>
        <pt x="1794" y="724" on="0"/>
        <pt x="1757" y="879" on="1"/>
        <pt x="1937" y="879" on="1"/>
        <pt x="1976" y="730" on="0"/>
        <pt x="2003" y="503" on="0"/>
        <pt x="2003" y="379" on="1"/>
        <pt x="2003" y="61" on="0"/>
        <pt x="1768" y="-240" on="0"/>
        <pt x="1530" y="-240" on="1"/>
        <pt x="1291" y="-240" on="0"/>
        <pt x="1057" y="61" on="0"/>
        <pt x="1057" y="379" on="1"/>
        <pt x="1057" y="442" on="1"/>
        <pt x="1059" y="500" on="1"/>
        <pt x="1004" y="451" on="0"/>
        <pt x="922" y="451" on="1"/>
        <pt x="767" y="451" on="0"/>
        <pt x="715" y="608" on="1"/>
        <pt x="693" y="530" on="0"/>
        <pt x="598" y="451" on="0"/>
        <pt x="504" y="451" on="1"/>
        <pt x="389" y="451" on="0"/>
        <pt x="340" y="561" on="1"/>
        <pt x="356" y="409" on="0"/>
      </contour>
    </TTGlyph>
    <TTGlyph name="glyph00050" xMin="113" yMin="-299" xMax="1065" yMax="1516">
      <contour>
        <pt x="403" y="1516" on="1"/>
        <pt x="417" y="1487" on="0"/>
        <pt x="440" y="1376" on="0"/>
        <pt x="440" y="1327" on="1"/>
        <pt x="440" y="1255" on="0"/>
        <pt x="409" y="1110" on="0"/>
        <pt x="368" y="996" on="1"/>
        <pt x="326" y="882" on="0"/>
        <pt x="295" y="736" on="0"/>
        <pt x="295" y="664" on="1"/>
        <pt x="295" y="299" on="0"/>
        <pt x="557" y="299" on="1"/>
        <pt x="720" y="299" on="0"/>
        <pt x="883" y="518" on="0"/>
        <pt x="883" y="719" on="1"/>
        <pt x="883" y="939" on="0"/>
        <pt x="829" y="1150" on="1"/>
        <pt x="799" y="1270" on="1"/>
        <pt x="979" y="1270" on="1"/>
        <pt x="1034" y="1079" on="0"/>
        <pt x="1065" y="845" on="0"/>
        <pt x="1065" y="715" on="1"/>
        <pt x="1065" y="466" on="0"/>
        <pt x="857" y="186" on="0"/>
        <pt x="653" y="160" on="1"/>
        <pt x="653" y="-299" on="1"/>
        <pt x="471" y="-299" on="1"/>
        <pt x="471" y="158" on="1"/>
        <pt x="288" y="179" on="0"/>
        <pt x="113" y="434" on="0"/>
        <pt x="113" y="674" on="1"/>
        <pt x="113" y="835" on="0"/>
        <pt x="192" y="1029" on="1"/>
        <pt x="234" y="1133" on="0"/>
        <pt x="270" y="1269" on="0"/>
        <pt x="270" y="1331" on="1"/>
        <pt x="270" y="1424" on="0"/>
        <pt x="246" y="1489" on="1"/>
        <pt x="238" y="1516" on="1"/>
      </contour>
    </TTGlyph>
    <TTGlyph name="glyph00051" xMin="-51" yMin="193" xMax="532" yMax="1556">
      <contour>
        <pt x="-51" y="1532" on="1"/>
        <pt x="10" y="1556" on="0"/>
        <pt x="106" y="1556" on="1"/>
        <pt x="274" y="1556" on="0"/>
        <pt x="452" y="1312" on="0"/>
        <pt x="532" y="747" on="0"/>
        <pt x="532" y="231" on="1"/>
        <pt x="532" y="193" on="1"/>
        <pt x="350" y="193" on="1"/>
        <pt x="350" y="231" on="1"/>
        <pt x="350" y="694" on="0"/>
        <pt x="299" y="1187" on="0"/>
        <pt x="187" y="1407" on="0"/>
        <pt x="84" y="1407" on="1"/>
        <pt x="14" y="1407" on="0"/>
        <pt x="-51" y="1386" on="1"/>
      </contour>
    </TTGlyph>
    <TTGlyph name="glyph00052" xMin="-51" yMin="-492" xMax="1094" yMax="1556">
      <contour>
        <pt x="84" y="1407" on="1"/>
        <pt x="14" y="1407" on="0"/>
        <pt x="-51" y="1386" on="1"/>
        <pt x="-51" y="1532" on="1"/>
        <pt x="10" y="1556" on="0"/>
        <pt x="106" y="1556" on="1"/>
        <pt x="278" y="1556" on="0"/>
        <pt x="465" y="1303" on="0"/>
        <pt x="504" y="1018" on="1"/>
        <pt x="593" y="1118" on="0"/>
        <pt x="735" y="1118" on="1"/>
        <pt x="897" y="1118" on="0"/>
        <pt x="1094" y="901" on="0"/>
        <pt x="1094" y="723" on="1"/>
        <pt x="1094" y="560" on="0"/>
        <pt x="902" y="367" on="0"/>
        <pt x="737" y="367" on="1"/>
        <pt x="644" y="367" on="0"/>
        <pt x="569" y="416" on="1"/>
        <pt x="573" y="316" on="0"/>
        <pt x="573" y="211" on="1"/>
        <pt x="573" y="-151" on="0"/>
        <pt x="319" y="-492" on="0"/>
        <pt x="33" y="-492" on="1"/>
        <pt x="33" y="-342" on="1"/>
        <pt x="167" y="-342" on="0"/>
        <pt x="318" y="-228" on="0"/>
        <pt x="391" y="13" on="0"/>
        <pt x="391" y="211" on="1"/>
        <pt x="391" y="476" on="0"/>
        <pt x="345" y="961" on="0"/>
        <pt x="305" y="1143" on="1"/>
        <pt x="247" y="1407" on="0"/>
      </contour>
      <contour>
        <pt x="922" y="731" on="1"/>
        <pt x="922" y="834" on="0"/>
        <pt x="817" y="969" on="0"/>
        <pt x="735" y="969" on="1"/>
        <pt x="648" y="969" on="0"/>
        <pt x="547" y="865" on="0"/>
        <pt x="547" y="766" on="1"/>
        <pt x="547" y="657" on="0"/>
        <pt x="652" y="516" on="0"/>
        <pt x="737" y="516" on="1"/>
        <pt x="825" y="516" on="0"/>
        <pt x="922" y="628" on="0"/>
      </contour>
    </TTGlyph>
    <TTGlyph name="glyph00053" xMin="20" yMin="-221" xMax="1124" yMax="897">
      <contour>
        <pt x="20" y="870" on="1"/>
        <pt x="80" y="897" on="0"/>
        <pt x="154" y="897" on="1"/>
        <pt x="247" y="897" on="0"/>
        <pt x="393" y="773" on="0"/>
        <pt x="473" y="541" on="0"/>
        <pt x="473" y="383" on="1"/>
        <pt x="473" y="122" on="0"/>
        <pt x="291" y="-82" on="1"/>
        <pt x="569" y="-82" on="1"/>
        <pt x="761" y="-82" on="0"/>
        <pt x="942" y="111" on="0"/>
        <pt x="942" y="324" on="1"/>
        <pt x="942" y="478" on="0"/>
        <pt x="850" y="731" on="0"/>
        <pt x="729" y="877" on="1"/>
        <pt x="909" y="877" on="1"/>
        <pt x="1025" y="749" on="0"/>
        <pt x="1124" y="486" on="0"/>
        <pt x="1124" y="324" on="1"/>
        <pt x="1124" y="42" on="0"/>
        <pt x="861" y="-221" on="0"/>
        <pt x="571" y="-221" on="1"/>
        <pt x="59" y="-221" on="1"/>
        <pt x="59" y="-82" on="1"/>
        <pt x="123" y="-82" on="1"/>
        <pt x="211" y="-2" on="0"/>
        <pt x="291" y="218" on="0"/>
        <pt x="291" y="365" on="1"/>
        <pt x="291" y="479" on="0"/>
        <pt x="250" y="651" on="0"/>
        <pt x="178" y="743" on="0"/>
        <pt x="133" y="743" on="1"/>
        <pt x="93" y="743" on="0"/>
        <pt x="59" y="727" on="1"/>
      </contour>
    </TTGlyph>
    <TTGlyph name="glyph00054" xMin="-102" yMin="-492" xMax="653" yMax="1556">
      <contour>
        <pt x="66" y="-492" on="1"/>
        <pt x="-102" y="-492" on="1"/>
        <pt x="30" y="-331" on="0"/>
        <pt x="138" y="-82" on="0"/>
        <pt x="184" y="250" on="0"/>
        <pt x="184" y="563" on="1"/>
        <pt x="184" y="819" on="0"/>
        <pt x="243" y="1176" on="0"/>
        <pt x="368" y="1438" on="0"/>
        <pt x="483" y="1556" on="1"/>
        <pt x="653" y="1556" on="1"/>
        <pt x="535" y="1418" on="0"/>
        <pt x="415" y="1181" on="0"/>
        <pt x="367" y="865" on="0"/>
        <pt x="367" y="561" on="1"/>
        <pt x="367" y="279" on="0"/>
        <pt x="311" y="-104" on="0"/>
        <pt x="184" y="-378" on="0"/>
      </contour>
    </TTGlyph>
    <TTGlyph name="glyph00055" xMin="41" yMin="-242" xMax="1743" yMax="877">
      <contour>
        <pt x="244" y="449" on="1"/>
        <pt x="133" y="449" on="0"/>
        <pt x="41" y="469" on="1"/>
        <pt x="41" y="598" on="1"/>
        <pt x="225" y="598" on="1"/>
        <pt x="296" y="598" on="0"/>
        <pt x="358" y="677" on="0"/>
        <pt x="358" y="764" on="1"/>
        <pt x="358" y="877" on="1"/>
        <pt x="500" y="877" on="1"/>
        <pt x="516" y="850" on="0"/>
        <pt x="541" y="759" on="0"/>
        <pt x="541" y="725" on="1"/>
        <pt x="541" y="670" on="0"/>
        <pt x="607" y="608" on="0"/>
        <pt x="668" y="608" on="1"/>
        <pt x="722" y="608" on="0"/>
        <pt x="782" y="646" on="0"/>
        <pt x="827" y="740" on="0"/>
        <pt x="862" y="877" on="1"/>
        <pt x="1042" y="877" on="1"/>
        <pt x="1005" y="722" on="0"/>
        <pt x="979" y="511" on="0"/>
        <pt x="979" y="385" on="1"/>
        <pt x="979" y="139" on="0"/>
        <pt x="1124" y="-94" on="0"/>
        <pt x="1270" y="-94" on="1"/>
        <pt x="1415" y="-94" on="0"/>
        <pt x="1561" y="139" on="0"/>
        <pt x="1561" y="385" on="1"/>
        <pt x="1561" y="513" on="0"/>
        <pt x="1534" y="722" on="0"/>
        <pt x="1497" y="877" on="1"/>
        <pt x="1677" y="877" on="1"/>
        <pt x="1716" y="728" on="0"/>
        <pt x="1743" y="501" on="0"/>
        <pt x="1743" y="377" on="1"/>
        <pt x="1743" y="59" on="0"/>
        <pt x="1508" y="-242" on="0"/>
        <pt x="1270" y="-242" on="1"/>
        <pt x="1031" y="-242" on="0"/>
        <pt x="797" y="59" on="0"/>
        <pt x="797" y="377" on="1"/>
        <pt x="797" y="440" on="1"/>
        <pt x="799" y="498" on="1"/>
        <pt x="744" y="449" on="0"/>
        <pt x="662" y="449" on="1"/>
        <pt x="507" y="449" on="0"/>
        <pt x="455" y="606" on="1"/>
        <pt x="433" y="528" on="0"/>
        <pt x="338" y="449" on="0"/>
      </contour>
    </TTGlyph>
    <TTGlyph name="glyph00056" xMin="133" yMin="-242" xMax="1788" yMax="899">
      <contour>
        <pt x="608" y="-242" on="1"/>
        <pt x="375" y="-242" on="0"/>
        <pt x="133" y="97" on="0"/>
        <pt x="133" y="422" on="1"/>
        <pt x="133" y="559" on="0"/>
        <pt x="209" y="778" on="0"/>
        <pt x="341" y="899" on="0"/>
        <pt x="420" y="899" on="1"/>
        <pt x="553" y="899" on="0"/>
        <pt x="709" y="646" on="0"/>
        <pt x="709" y="428" on="1"/>
        <pt x="709" y="304" on="0"/>
        <pt x="569" y="193" on="0"/>
        <pt x="428" y="193" on="1"/>
        <pt x="334" y="193" on="1"/>
        <pt x="399" y="-94" on="0"/>
        <pt x="608" y="-94" on="1"/>
        <pt x="774" y="-94" on="0"/>
        <pt x="940" y="81" on="0"/>
        <pt x="940" y="244" on="1"/>
        <pt x="940" y="877" on="1"/>
        <pt x="1122" y="877" on="1"/>
        <pt x="1122" y="242" on="1"/>
        <pt x="1122" y="-94" on="0"/>
        <pt x="1360" y="-94" on="1"/>
        <pt x="1606" y="-94" on="0"/>
        <pt x="1606" y="313" on="1"/>
        <pt x="1606" y="453" on="0"/>
        <pt x="1554" y="702" on="0"/>
        <pt x="1481" y="877" on="1"/>
        <pt x="1661" y="877" on="1"/>
        <pt x="1788" y="629" on="0"/>
        <pt x="1788" y="322" on="1"/>
        <pt x="1788" y="44" on="0"/>
        <pt x="1578" y="-242" on="0"/>
        <pt x="1372" y="-242" on="1"/>
        <pt x="1239" y="-242" on="0"/>
        <pt x="1059" y="-131" on="0"/>
        <pt x="1022" y="-25" on="1"/>
        <pt x="961" y="-140" on="0"/>
        <pt x="767" y="-242" on="0"/>
      </contour>
      <contour>
        <pt x="315" y="410" on="1"/>
        <pt x="315" y="372" on="1"/>
        <pt x="317" y="332" on="1"/>
        <pt x="408" y="332" on="1"/>
        <pt x="473" y="332" on="0"/>
        <pt x="526" y="384" on="0"/>
        <pt x="526" y="432" on="1"/>
        <pt x="526" y="584" on="0"/>
        <pt x="473" y="750" on="0"/>
        <pt x="422" y="750" on="1"/>
        <pt x="371" y="750" on="0"/>
        <pt x="315" y="571" on="0"/>
      </contour>
    </TTGlyph>
    <TTGlyph name="glyph00057" xMin="74" yMin="-240" xMax="2183" yMax="899">
      <contour>
        <pt x="211" y="-219" on="1"/>
        <pt x="390" y="106" on="0"/>
        <pt x="420" y="367" on="1"/>
        <pt x="256" y="390" on="0"/>
        <pt x="74" y="540" on="0"/>
        <pt x="74" y="655" on="1"/>
        <pt x="74" y="764" on="0"/>
        <pt x="209" y="899" on="0"/>
        <pt x="322" y="899" on="1"/>
        <pt x="452" y="899" on="0"/>
        <pt x="598" y="694" on="0"/>
        <pt x="602" y="498" on="1"/>
        <pt x="713" y="500" on="0"/>
        <pt x="799" y="598" on="0"/>
        <pt x="799" y="729" on="1"/>
        <pt x="799" y="879" on="1"/>
        <pt x="940" y="879" on="1"/>
        <pt x="961" y="831" on="0"/>
        <pt x="981" y="716" on="0"/>
        <pt x="981" y="676" on="1"/>
        <pt x="981" y="518" on="0"/>
        <pt x="1087" y="518" on="1"/>
        <pt x="1174" y="518" on="0"/>
        <pt x="1256" y="635" on="0"/>
        <pt x="1288" y="817" on="1"/>
        <pt x="1291" y="838" on="0"/>
        <pt x="1303" y="879" on="1"/>
        <pt x="1483" y="879" on="1"/>
        <pt x="1446" y="726" on="0"/>
        <pt x="1419" y="516" on="0"/>
        <pt x="1419" y="387" on="1"/>
        <pt x="1419" y="141" on="0"/>
        <pt x="1564" y="-92" on="0"/>
        <pt x="1710" y="-92" on="1"/>
        <pt x="1856" y="-92" on="0"/>
        <pt x="2001" y="141" on="0"/>
        <pt x="2001" y="387" on="1"/>
        <pt x="2001" y="515" on="0"/>
        <pt x="1974" y="724" on="0"/>
        <pt x="1937" y="879" on="1"/>
        <pt x="2118" y="879" on="1"/>
        <pt x="2153" y="747" on="0"/>
        <pt x="2183" y="523" on="0"/>
        <pt x="2183" y="379" on="1"/>
        <pt x="2183" y="61" on="0"/>
        <pt x="1948" y="-240" on="0"/>
        <pt x="1710" y="-240" on="1"/>
        <pt x="1472" y="-240" on="0"/>
        <pt x="1237" y="61" on="0"/>
        <pt x="1237" y="379" on="1"/>
        <pt x="1241" y="459" on="1"/>
        <pt x="1213" y="402" on="0"/>
        <pt x="1133" y="358" on="0"/>
        <pt x="1067" y="358" on="1"/>
        <pt x="1005" y="358" on="0"/>
        <pt x="906" y="430" on="0"/>
        <pt x="885" y="516" on="1"/>
        <pt x="864" y="440" on="0"/>
        <pt x="723" y="363" on="0"/>
        <pt x="596" y="358" on="1"/>
        <pt x="565" y="71" on="0"/>
        <pt x="383" y="-219" on="1"/>
      </contour>
      <contour>
        <pt x="246" y="659" on="1"/>
        <pt x="246" y="537" on="0"/>
        <pt x="426" y="508" on="1"/>
        <pt x="423" y="624" on="0"/>
        <pt x="366" y="750" on="0"/>
        <pt x="322" y="750" on="1"/>
        <pt x="291" y="750" on="0"/>
        <pt x="246" y="709" on="0"/>
      </contour>
    </TTGlyph>
    <TTGlyph name="glyph00058" xMin="143" yMin="-492" xMax="2081" yMax="879">
      <contour>
        <pt x="995" y="-340" on="1"/>
        <pt x="1386" y="-340" on="0"/>
        <pt x="1741" y="-254" on="1"/>
        <pt x="1741" y="-412" on="1"/>
        <pt x="1383" y="-492" on="0"/>
        <pt x="989" y="-492" on="1"/>
        <pt x="561" y="-492" on="0"/>
        <pt x="143" y="-128" on="0"/>
        <pt x="143" y="252" on="1"/>
        <pt x="143" y="583" on="0"/>
        <pt x="225" y="879" on="1"/>
        <pt x="397" y="879" on="1"/>
        <pt x="367" y="765" on="0"/>
        <pt x="367" y="676" on="1"/>
        <pt x="367" y="595" on="0"/>
        <pt x="431" y="518" on="0"/>
        <pt x="508" y="518" on="1"/>
        <pt x="604" y="518" on="0"/>
        <pt x="676" y="604" on="0"/>
        <pt x="676" y="729" on="1"/>
        <pt x="676" y="879" on="1"/>
        <pt x="817" y="879" on="1"/>
        <pt x="838" y="831" on="0"/>
        <pt x="858" y="716" on="0"/>
        <pt x="858" y="676" on="1"/>
        <pt x="858" y="604" on="0"/>
        <pt x="927" y="518" on="0"/>
        <pt x="985" y="518" on="1"/>
        <pt x="1072" y="518" on="0"/>
        <pt x="1154" y="635" on="0"/>
        <pt x="1186" y="817" on="1"/>
        <pt x="1200" y="879" on="1"/>
        <pt x="1380" y="879" on="1"/>
        <pt x="1343" y="724" on="0"/>
        <pt x="1317" y="513" on="0"/>
        <pt x="1317" y="387" on="1"/>
        <pt x="1317" y="208" on="0"/>
        <pt x="1461" y="39" on="0"/>
        <pt x="1608" y="39" on="1"/>
        <pt x="1754" y="39" on="0"/>
        <pt x="1898" y="208" on="0"/>
        <pt x="1898" y="387" on="1"/>
        <pt x="1898" y="510" on="0"/>
        <pt x="1873" y="722" on="0"/>
        <pt x="1835" y="879" on="1"/>
        <pt x="2015" y="879" on="1"/>
        <pt x="2054" y="730" on="0"/>
        <pt x="2081" y="503" on="0"/>
        <pt x="2081" y="379" on="1"/>
        <pt x="2081" y="128" on="0"/>
        <pt x="1846" y="-109" on="0"/>
        <pt x="1608" y="-109" on="1"/>
        <pt x="1369" y="-109" on="0"/>
        <pt x="1135" y="128" on="0"/>
        <pt x="1135" y="379" on="1"/>
        <pt x="1139" y="459" on="1"/>
        <pt x="1111" y="402" on="0"/>
        <pt x="1031" y="358" on="0"/>
        <pt x="965" y="358" on="1"/>
        <pt x="889" y="358" on="0"/>
        <pt x="780" y="443" on="0"/>
        <pt x="762" y="516" on="1"/>
        <pt x="739" y="430" on="0"/>
        <pt x="614" y="358" on="0"/>
        <pt x="504" y="358" on="1"/>
        <pt x="399" y="358" on="0"/>
        <pt x="328" y="442" on="1"/>
        <pt x="326" y="362" on="1"/>
        <pt x="326" y="279" on="1"/>
        <pt x="326" y="158" on="0"/>
        <pt x="350" y="59" on="1"/>
        <pt x="924" y="137" on="1"/>
        <pt x="944" y="-12" on="1"/>
        <pt x="406" y="-82" on="1"/>
        <pt x="483" y="-215" on="0"/>
        <pt x="776" y="-340" on="0"/>
      </contour>
    </TTGlyph>
    <TTGlyph name="glyph00059" xMin="133" yMin="-242" xMax="1591" yMax="899">
      <contour>
        <pt x="608" y="-94" on="1"/>
        <pt x="796" y="-94" on="0"/>
        <pt x="956" y="131" on="0"/>
        <pt x="956" y="387" on="1"/>
        <pt x="956" y="879" on="1"/>
        <pt x="1098" y="879" on="1"/>
        <pt x="1115" y="841" on="0"/>
        <pt x="1139" y="723" on="0"/>
        <pt x="1139" y="682" on="1"/>
        <pt x="1139" y="608" on="0"/>
        <pt x="1213" y="516" on="0"/>
        <pt x="1272" y="516" on="1"/>
        <pt x="1344" y="516" on="0"/>
        <pt x="1409" y="604" on="0"/>
        <pt x="1409" y="694" on="1"/>
        <pt x="1409" y="879" on="1"/>
        <pt x="1550" y="879" on="1"/>
        <pt x="1568" y="825" on="0"/>
        <pt x="1591" y="702" on="0"/>
        <pt x="1591" y="662" on="1"/>
        <pt x="1591" y="520" on="0"/>
        <pt x="1432" y="367" on="0"/>
        <pt x="1272" y="367" on="1"/>
        <pt x="1193" y="367" on="0"/>
        <pt x="1139" y="410" on="1"/>
        <pt x="1139" y="379" on="1"/>
        <pt x="1139" y="49" on="0"/>
        <pt x="885" y="-242" on="0"/>
        <pt x="608" y="-242" on="1"/>
        <pt x="375" y="-242" on="0"/>
        <pt x="133" y="97" on="0"/>
        <pt x="133" y="422" on="1"/>
        <pt x="133" y="559" on="0"/>
        <pt x="209" y="778" on="0"/>
        <pt x="341" y="899" on="0"/>
        <pt x="420" y="899" on="1"/>
        <pt x="553" y="899" on="0"/>
        <pt x="709" y="646" on="0"/>
        <pt x="709" y="428" on="1"/>
        <pt x="709" y="304" on="0"/>
        <pt x="569" y="193" on="0"/>
        <pt x="428" y="193" on="1"/>
        <pt x="334" y="193" on="1"/>
        <pt x="399" y="-94" on="0"/>
      </contour>
      <contour>
        <pt x="315" y="410" on="1"/>
        <pt x="315" y="372" on="1"/>
        <pt x="317" y="332" on="1"/>
        <pt x="408" y="332" on="1"/>
        <pt x="473" y="332" on="0"/>
        <pt x="526" y="384" on="0"/>
        <pt x="526" y="432" on="1"/>
        <pt x="526" y="584" on="0"/>
        <pt x="473" y="750" on="0"/>
        <pt x="422" y="750" on="1"/>
        <pt x="371" y="750" on="0"/>
        <pt x="315" y="571" on="0"/>
      </contour>
    </TTGlyph>
    <TTGlyph name="glyph00060" xMin="385" yMin="485" xMax="795" yMax="877">
      <contour>
        <pt x="795" y="684" on="1"/>
        <pt x="795" y="592" on="0"/>
        <pt x="682" y="485" on="0"/>
        <pt x="588" y="485" on="1"/>
        <pt x="494" y="485" on="0"/>
        <pt x="385" y="590" on="0"/>
        <pt x="385" y="682" on="1"/>
        <pt x="385" y="773" on="0"/>
        <pt x="495" y="877" on="0"/>
        <pt x="588" y="877" on="1"/>
        <pt x="682" y="877" on="0"/>
        <pt x="795" y="770" on="0"/>
      </contour>
      <contour>
        <pt x="723" y="682" on="1"/>
        <pt x="723" y="745" on="0"/>
        <pt x="647" y="817" on="0"/>
        <pt x="588" y="817" on="1"/>
        <pt x="529" y="817" on="0"/>
        <pt x="453" y="745" on="0"/>
        <pt x="453" y="682" on="1"/>
        <pt x="453" y="619" on="0"/>
        <pt x="523" y="547" on="0"/>
        <pt x="588" y="547" on="1"/>
        <pt x="648" y="547" on="0"/>
        <pt x="723" y="619" on="0"/>
      </contour>
    </TTGlyph>
    <TTGlyph name="glyph00061" xMin="113" yMin="82" xMax="932" yMax="784">
      <contour>
        <pt x="420" y="178" on="1"/>
        <pt x="420" y="226" on="0"/>
        <pt x="479" y="276" on="0"/>
        <pt x="524" y="276" on="1"/>
        <pt x="569" y="276" on="0"/>
        <pt x="625" y="226" on="0"/>
        <pt x="625" y="178" on="1"/>
        <pt x="625" y="132" on="0"/>
        <pt x="569" y="82" on="0"/>
        <pt x="524" y="82" on="1"/>
        <pt x="479" y="82" on="0"/>
        <pt x="420" y="132" on="0"/>
      </contour>
      <contour>
        <pt x="727" y="684" on="1"/>
        <pt x="727" y="732" on="0"/>
        <pt x="786" y="784" on="0"/>
        <pt x="831" y="784" on="1"/>
        <pt x="876" y="784" on="0"/>
        <pt x="932" y="733" on="0"/>
        <pt x="932" y="686" on="1"/>
        <pt x="932" y="640" on="0"/>
        <pt x="876" y="588" on="0"/>
        <pt x="831" y="588" on="1"/>
        <pt x="786" y="588" on="0"/>
        <pt x="727" y="639" on="0"/>
      </contour>
      <contour>
        <pt x="113" y="684" on="1"/>
        <pt x="113" y="732" on="0"/>
        <pt x="172" y="784" on="0"/>
        <pt x="217" y="784" on="1"/>
        <pt x="262" y="784" on="0"/>
        <pt x="317" y="733" on="0"/>
        <pt x="317" y="686" on="1"/>
        <pt x="317" y="640" on="0"/>
        <pt x="262" y="588" on="0"/>
        <pt x="217" y="588" on="1"/>
        <pt x="172" y="588" on="0"/>
        <pt x="113" y="639" on="0"/>
      </contour>
    </TTGlyph>
    <TTGlyph name="glyph00062" xMin="113" yMin="-68" xMax="1341" yMax="987">
      <contour>
        <pt x="573" y="78" on="1"/>
        <pt x="573" y="148" on="0"/>
        <pt x="661" y="227" on="0"/>
        <pt x="729" y="227" on="1"/>
        <pt x="797" y="227" on="0"/>
        <pt x="881" y="151" on="0"/>
        <pt x="881" y="80" on="1"/>
        <pt x="881" y="11" on="0"/>
        <pt x="797" y="-68" on="0"/>
        <pt x="729" y="-68" on="1"/>
        <pt x="660" y="-68" on="0"/>
        <pt x="573" y="13" on="0"/>
      </contour>
      <contour>
        <pt x="1034" y="838" on="1"/>
        <pt x="1034" y="908" on="0"/>
        <pt x="1122" y="987" on="0"/>
        <pt x="1190" y="987" on="1"/>
        <pt x="1258" y="987" on="0"/>
        <pt x="1341" y="911" on="0"/>
        <pt x="1341" y="840" on="1"/>
        <pt x="1341" y="771" on="0"/>
        <pt x="1258" y="694" on="0"/>
        <pt x="1190" y="694" on="1"/>
        <pt x="1122" y="694" on="0"/>
        <pt x="1034" y="773" on="0"/>
      </contour>
      <contour>
        <pt x="113" y="838" on="1"/>
        <pt x="113" y="907" on="0"/>
        <pt x="198" y="987" on="0"/>
        <pt x="268" y="987" on="1"/>
        <pt x="336" y="987" on="0"/>
        <pt x="420" y="911" on="0"/>
        <pt x="420" y="840" on="1"/>
        <pt x="420" y="771" on="0"/>
        <pt x="336" y="694" on="0"/>
        <pt x="268" y="694" on="1"/>
        <pt x="199" y="694" on="0"/>
        <pt x="113" y="773" on="0"/>
      </contour>
    </TTGlyph>
    <TTGlyph name="glyph00063" xMin="113" yMin="-258" xMax="1751" yMax="1147">
      <contour>
        <pt x="727" y="-66" on="1"/>
        <pt x="727" y="26" on="0"/>
        <pt x="840" y="133" on="0"/>
        <pt x="934" y="133" on="1"/>
        <pt x="1028" y="133" on="0"/>
        <pt x="1137" y="28" on="0"/>
        <pt x="1137" y="-63" on="1"/>
        <pt x="1137" y="-154" on="0"/>
        <pt x="1027" y="-258" on="0"/>
        <pt x="934" y="-258" on="1"/>
        <pt x="840" y="-258" on="0"/>
        <pt x="727" y="-151" on="0"/>
      </contour>
      <contour>
        <pt x="1341" y="948" on="1"/>
        <pt x="1341" y="1040" on="0"/>
        <pt x="1454" y="1147" on="0"/>
        <pt x="1548" y="1147" on="1"/>
        <pt x="1642" y="1147" on="0"/>
        <pt x="1751" y="1042" on="0"/>
        <pt x="1751" y="950" on="1"/>
        <pt x="1751" y="857" on="0"/>
        <pt x="1639" y="756" on="0"/>
        <pt x="1548" y="756" on="1"/>
        <pt x="1457" y="756" on="0"/>
        <pt x="1341" y="861" on="0"/>
      </contour>
      <contour>
        <pt x="113" y="948" on="1"/>
        <pt x="113" y="1039" on="0"/>
        <pt x="225" y="1147" on="0"/>
        <pt x="319" y="1147" on="1"/>
        <pt x="413" y="1147" on="0"/>
        <pt x="522" y="1042" on="0"/>
        <pt x="522" y="950" on="1"/>
        <pt x="522" y="857" on="0"/>
        <pt x="410" y="756" on="0"/>
        <pt x="319" y="756" on="1"/>
        <pt x="226" y="756" on="0"/>
        <pt x="113" y="862" on="0"/>
      </contour>
    </TTGlyph>
    <TTGlyph name="glyph00064" xMin="113" yMin="-242" xMax="1751" yMax="1163">
      <contour>
        <pt x="1137" y="971" on="1"/>
        <pt x="1137" y="879" on="0"/>
        <pt x="1024" y="772" on="0"/>
        <pt x="930" y="772" on="1"/>
        <pt x="836" y="772" on="0"/>
        <pt x="727" y="877" on="0"/>
        <pt x="727" y="969" on="1"/>
        <pt x="727" y="1062" on="0"/>
        <pt x="839" y="1163" on="0"/>
        <pt x="930" y="1163" on="1"/>
        <pt x="1023" y="1163" on="0"/>
        <pt x="1137" y="1058" on="0"/>
      </contour>
      <contour>
        <pt x="522" y="-43" on="1"/>
        <pt x="522" y="-135" on="0"/>
        <pt x="409" y="-242" on="0"/>
        <pt x="315" y="-242" on="1"/>
        <pt x="222" y="-242" on="0"/>
        <pt x="113" y="-136" on="0"/>
        <pt x="113" y="-45" on="1"/>
        <pt x="113" y="46" on="0"/>
        <pt x="223" y="150" on="0"/>
        <pt x="315" y="150" on="1"/>
        <pt x="409" y="150" on="0"/>
        <pt x="522" y="43" on="0"/>
      </contour>
      <contour>
        <pt x="1751" y="-43" on="1"/>
        <pt x="1751" y="-135" on="0"/>
        <pt x="1638" y="-242" on="0"/>
        <pt x="1544" y="-242" on="1"/>
        <pt x="1450" y="-242" on="0"/>
        <pt x="1341" y="-137" on="0"/>
        <pt x="1341" y="-45" on="1"/>
        <pt x="1341" y="46" on="0"/>
        <pt x="1451" y="150" on="0"/>
        <pt x="1544" y="150" on="1"/>
        <pt x="1638" y="150" on="0"/>
        <pt x="1751" y="43" on="0"/>
      </contour>
    </TTGlyph>
    <TTGlyph name="glyph00065" xMin="113" yMin="-242" xMax="1751" yMax="1163">
      <contour>
        <pt x="727" y="-49" on="1"/>
        <pt x="727" y="43" on="0"/>
        <pt x="840" y="150" on="0"/>
        <pt x="934" y="150" on="1"/>
        <pt x="1028" y="150" on="0"/>
        <pt x="1137" y="45" on="0"/>
        <pt x="1137" y="-47" on="1"/>
        <pt x="1137" y="-138" on="0"/>
        <pt x="1027" y="-242" on="0"/>
        <pt x="934" y="-242" on="1"/>
        <pt x="840" y="-242" on="0"/>
        <pt x="727" y="-135" on="0"/>
      </contour>
      <contour>
        <pt x="799" y="-47" on="1"/>
        <pt x="799" y="-110" on="0"/>
        <pt x="875" y="-182" on="0"/>
        <pt x="934" y="-182" on="1"/>
        <pt x="993" y="-182" on="0"/>
        <pt x="1069" y="-110" on="0"/>
        <pt x="1069" y="-47" on="1"/>
        <pt x="1069" y="16" on="0"/>
        <pt x="999" y="88" on="0"/>
        <pt x="934" y="88" on="1"/>
        <pt x="874" y="88" on="0"/>
        <pt x="799" y="16" on="0"/>
      </contour>
      <contour>
        <pt x="1341" y="965" on="1"/>
        <pt x="1341" y="1056" on="0"/>
        <pt x="1455" y="1163" on="0"/>
        <pt x="1548" y="1163" on="1"/>
        <pt x="1641" y="1163" on="0"/>
        <pt x="1751" y="1059" on="0"/>
        <pt x="1751" y="967" on="1"/>
        <pt x="1751" y="876" on="0"/>
        <pt x="1641" y="772" on="0"/>
        <pt x="1548" y="772" on="1"/>
        <pt x="1456" y="772" on="0"/>
        <pt x="1341" y="879" on="0"/>
      </contour>
      <contour>
        <pt x="1413" y="967" on="1"/>
        <pt x="1413" y="904" on="0"/>
        <pt x="1489" y="831" on="0"/>
        <pt x="1548" y="831" on="1"/>
        <pt x="1607" y="831" on="0"/>
        <pt x="1683" y="904" on="0"/>
        <pt x="1683" y="967" on="1"/>
        <pt x="1683" y="1030" on="0"/>
        <pt x="1613" y="1102" on="0"/>
        <pt x="1548" y="1102" on="1"/>
        <pt x="1488" y="1102" on="0"/>
        <pt x="1413" y="1030" on="0"/>
      </contour>
      <contour>
        <pt x="113" y="965" on="1"/>
        <pt x="113" y="1055" on="0"/>
        <pt x="224" y="1163" on="0"/>
        <pt x="319" y="1163" on="1"/>
        <pt x="412" y="1163" on="0"/>
        <pt x="522" y="1059" on="0"/>
        <pt x="522" y="967" on="1"/>
        <pt x="522" y="876" on="0"/>
        <pt x="412" y="772" on="0"/>
        <pt x="319" y="772" on="1"/>
        <pt x="226" y="772" on="0"/>
        <pt x="113" y="880" on="0"/>
      </contour>
      <contour>
        <pt x="184" y="967" on="1"/>
        <pt x="184" y="906" on="0"/>
        <pt x="260" y="831" on="0"/>
        <pt x="319" y="831" on="1"/>
        <pt x="380" y="831" on="0"/>
        <pt x="455" y="906" on="0"/>
        <pt x="455" y="967" on="1"/>
        <pt x="455" y="1030" on="0"/>
        <pt x="385" y="1102" on="0"/>
        <pt x="319" y="1102" on="1"/>
        <pt x="259" y="1102" on="0"/>
        <pt x="184" y="1030" on="0"/>
      </contour>
    </TTGlyph>
    <TTGlyph name="glyph00066" xMin="113" yMin="-242" xMax="1751" yMax="1163">
      <contour>
        <pt x="1137" y="971" on="1"/>
        <pt x="1137" y="879" on="0"/>
        <pt x="1024" y="772" on="0"/>
        <pt x="930" y="772" on="1"/>
        <pt x="836" y="772" on="0"/>
        <pt x="727" y="877" on="0"/>
        <pt x="727" y="969" on="1"/>
        <pt x="727" y="1062" on="0"/>
        <pt x="839" y="1163" on="0"/>
        <pt x="930" y="1163" on="1"/>
        <pt x="1023" y="1163" on="0"/>
        <pt x="1137" y="1058" on="0"/>
      </contour>
      <contour>
        <pt x="1065" y="969" on="1"/>
        <pt x="1065" y="1032" on="0"/>
        <pt x="989" y="1104" on="0"/>
        <pt x="930" y="1104" on="1"/>
        <pt x="871" y="1104" on="0"/>
        <pt x="795" y="1032" on="0"/>
        <pt x="795" y="969" on="1"/>
        <pt x="795" y="906" on="0"/>
        <pt x="865" y="834" on="0"/>
        <pt x="930" y="834" on="1"/>
        <pt x="990" y="834" on="0"/>
        <pt x="1065" y="906" on="0"/>
      </contour>
      <contour>
        <pt x="522" y="-43" on="1"/>
        <pt x="522" y="-135" on="0"/>
        <pt x="409" y="-242" on="0"/>
        <pt x="315" y="-242" on="1"/>
        <pt x="222" y="-242" on="0"/>
        <pt x="113" y="-136" on="0"/>
        <pt x="113" y="-45" on="1"/>
        <pt x="113" y="46" on="0"/>
        <pt x="223" y="150" on="0"/>
        <pt x="315" y="150" on="1"/>
        <pt x="409" y="150" on="0"/>
        <pt x="522" y="43" on="0"/>
      </contour>
      <contour>
        <pt x="451" y="-45" on="1"/>
        <pt x="451" y="16" on="0"/>
        <pt x="375" y="90" on="0"/>
        <pt x="315" y="90" on="1"/>
        <pt x="257" y="90" on="0"/>
        <pt x="180" y="18" on="0"/>
        <pt x="180" y="-45" on="1"/>
        <pt x="180" y="-108" on="0"/>
        <pt x="250" y="-180" on="0"/>
        <pt x="315" y="-180" on="1"/>
        <pt x="375" y="-180" on="0"/>
        <pt x="451" y="-108" on="0"/>
      </contour>
      <contour>
        <pt x="1751" y="-43" on="1"/>
        <pt x="1751" y="-135" on="0"/>
        <pt x="1638" y="-242" on="0"/>
        <pt x="1544" y="-242" on="1"/>
        <pt x="1450" y="-242" on="0"/>
        <pt x="1341" y="-137" on="0"/>
        <pt x="1341" y="-45" on="1"/>
        <pt x="1341" y="46" on="0"/>
        <pt x="1451" y="150" on="0"/>
        <pt x="1544" y="150" on="1"/>
        <pt x="1638" y="150" on="0"/>
        <pt x="1751" y="43" on="0"/>
      </contour>
      <contour>
        <pt x="1679" y="-45" on="1"/>
        <pt x="1679" y="18" on="0"/>
        <pt x="1603" y="90" on="0"/>
        <pt x="1544" y="90" on="1"/>
        <pt x="1485" y="90" on="0"/>
        <pt x="1409" y="18" on="0"/>
        <pt x="1409" y="-45" on="1"/>
        <pt x="1409" y="-108" on="0"/>
        <pt x="1479" y="-180" on="0"/>
        <pt x="1544" y="-180" on="1"/>
        <pt x="1604" y="-180" on="0"/>
        <pt x="1679" y="-108" on="0"/>
      </contour>
    </TTGlyph>
    <TTGlyph name="glyph00067" xMin="41" yMin="-242" xMax="2912" yMax="877">
      <contour>
        <pt x="2846" y="877" on="1"/>
        <pt x="2866" y="802" on="0"/>
        <pt x="2891" y="675" on="0"/>
        <pt x="2906" y="557" on="0"/>
        <pt x="2912" y="441" on="0"/>
        <pt x="2912" y="377" on="1"/>
        <pt x="2912" y="59" on="0"/>
        <pt x="2677" y="-242" on="0"/>
        <pt x="2439" y="-242" on="1"/>
        <pt x="2200" y="-242" on="0"/>
        <pt x="1966" y="58" on="0"/>
        <pt x="1966" y="377" on="1"/>
        <pt x="1966" y="412" on="0"/>
        <pt x="1968" y="469" on="0"/>
        <pt x="1969" y="498" on="1"/>
        <pt x="1914" y="449" on="0"/>
        <pt x="1831" y="449" on="1"/>
        <pt x="1780" y="449" on="0"/>
        <pt x="1741" y="465" on="1"/>
        <pt x="1742" y="444" on="0"/>
        <pt x="1743" y="400" on="0"/>
        <pt x="1743" y="377" on="1"/>
        <pt x="1743" y="59" on="0"/>
        <pt x="1508" y="-242" on="0"/>
        <pt x="1270" y="-242" on="1"/>
        <pt x="1031" y="-242" on="0"/>
        <pt x="797" y="58" on="0"/>
        <pt x="797" y="377" on="1"/>
        <pt x="797" y="412" on="0"/>
        <pt x="799" y="469" on="0"/>
        <pt x="800" y="498" on="1"/>
        <pt x="745" y="449" on="0"/>
        <pt x="662" y="449" on="1"/>
        <pt x="507" y="449" on="0"/>
        <pt x="455" y="606" on="1"/>
        <pt x="433" y="528" on="0"/>
        <pt x="338" y="449" on="0"/>
        <pt x="244" y="449" on="1"/>
        <pt x="135" y="449" on="0"/>
        <pt x="41" y="469" on="1"/>
        <pt x="41" y="598" on="1"/>
        <pt x="225" y="598" on="1"/>
        <pt x="297" y="598" on="0"/>
        <pt x="358" y="676" on="0"/>
        <pt x="358" y="764" on="1"/>
        <pt x="358" y="877" on="1"/>
        <pt x="500" y="877" on="1"/>
        <pt x="507" y="865" on="0"/>
        <pt x="522" y="826" on="0"/>
        <pt x="534" y="783" on="0"/>
        <pt x="541" y="741" on="0"/>
        <pt x="541" y="725" on="1"/>
        <pt x="541" y="670" on="0"/>
        <pt x="607" y="608" on="0"/>
        <pt x="668" y="608" on="1"/>
        <pt x="709" y="608" on="0"/>
        <pt x="764" y="627" on="0"/>
        <pt x="805" y="684" on="0"/>
        <pt x="840" y="790" on="0"/>
        <pt x="862" y="877" on="1"/>
        <pt x="1042" y="877" on="1"/>
        <pt x="1023" y="798" on="0"/>
        <pt x="998" y="674" on="0"/>
        <pt x="984" y="562" on="0"/>
        <pt x="979" y="451" on="0"/>
        <pt x="979" y="385" on="1"/>
        <pt x="979" y="139" on="0"/>
        <pt x="1124" y="-94" on="0"/>
        <pt x="1270" y="-94" on="1"/>
        <pt x="1415" y="-94" on="0"/>
        <pt x="1561" y="139" on="0"/>
        <pt x="1561" y="385" on="1"/>
        <pt x="1561" y="452" on="0"/>
        <pt x="1555" y="563" on="0"/>
        <pt x="1541" y="674" on="0"/>
        <pt x="1516" y="797" on="0"/>
        <pt x="1497" y="877" on="1"/>
        <pt x="1677" y="877" on="1"/>
        <pt x="1694" y="820" on="0"/>
        <pt x="1716" y="717" on="0"/>
        <pt x="1722" y="666" on="1"/>
        <pt x="1736" y="638" on="0"/>
        <pt x="1795" y="608" on="0"/>
        <pt x="1837" y="608" on="1"/>
        <pt x="1878" y="608" on="0"/>
        <pt x="1933" y="627" on="0"/>
        <pt x="1974" y="684" on="0"/>
        <pt x="2009" y="790" on="0"/>
        <pt x="2031" y="877" on="1"/>
        <pt x="2211" y="877" on="1"/>
        <pt x="2192" y="798" on="0"/>
        <pt x="2167" y="674" on="0"/>
        <pt x="2153" y="562" on="0"/>
        <pt x="2148" y="451" on="0"/>
        <pt x="2148" y="385" on="1"/>
        <pt x="2148" y="139" on="0"/>
        <pt x="2293" y="-94" on="0"/>
        <pt x="2439" y="-94" on="1"/>
        <pt x="2584" y="-94" on="0"/>
        <pt x="2730" y="139" on="0"/>
        <pt x="2730" y="385" on="1"/>
        <pt x="2730" y="452" on="0"/>
        <pt x="2724" y="563" on="0"/>
        <pt x="2710" y="674" on="0"/>
        <pt x="2685" y="797" on="0"/>
        <pt x="2666" y="877" on="1"/>
      </contour>
    </TTGlyph>
    <TTGlyph name="glyph00068" xMin="174" yMin="-283" xMax="2950" yMax="879">
      <contour>
        <pt x="2884" y="877" on="1"/>
        <pt x="2904" y="802" on="0"/>
        <pt x="2929" y="675" on="0"/>
        <pt x="2944" y="557" on="0"/>
        <pt x="2950" y="441" on="0"/>
        <pt x="2950" y="377" on="1"/>
        <pt x="2950" y="59" on="0"/>
        <pt x="2715" y="-242" on="0"/>
        <pt x="2477" y="-242" on="1"/>
        <pt x="2238" y="-242" on="0"/>
        <pt x="2004" y="58" on="0"/>
        <pt x="2004" y="377" on="1"/>
        <pt x="2004" y="412" on="0"/>
        <pt x="2006" y="469" on="0"/>
        <pt x="2007" y="498" on="1"/>
        <pt x="1952" y="449" on="0"/>
        <pt x="1869" y="449" on="1"/>
        <pt x="1818" y="449" on="0"/>
        <pt x="1779" y="465" on="1"/>
        <pt x="1780" y="444" on="0"/>
        <pt x="1781" y="400" on="0"/>
        <pt x="1781" y="377" on="1"/>
        <pt x="1781" y="59" on="0"/>
        <pt x="1546" y="-242" on="0"/>
        <pt x="1308" y="-242" on="1"/>
        <pt x="1102" y="-242" on="0"/>
        <pt x="872" y="-21" on="0"/>
        <pt x="844" y="212" on="1"/>
        <pt x="749" y="172" on="0"/>
        <pt x="598" y="172" on="1"/>
        <pt x="441" y="172" on="0"/>
        <pt x="356" y="260" on="1"/>
        <pt x="356" y="-283" on="1"/>
        <pt x="174" y="-283" on="1"/>
        <pt x="174" y="879" on="1"/>
        <pt x="356" y="879" on="1"/>
        <pt x="356" y="580" on="1"/>
        <pt x="356" y="512" on="0"/>
        <pt x="366" y="415" on="0"/>
        <pt x="411" y="352" on="0"/>
        <pt x="503" y="322" on="0"/>
        <pt x="584" y="322" on="1"/>
        <pt x="635" y="322" on="0"/>
        <pt x="719" y="338" on="0"/>
        <pt x="784" y="377" on="0"/>
        <pt x="827" y="441" on="0"/>
        <pt x="837" y="488" on="1"/>
        <pt x="840" y="565" on="0"/>
        <pt x="866" y="762" on="0"/>
        <pt x="900" y="877" on="1"/>
        <pt x="1080" y="877" on="1"/>
        <pt x="1061" y="798" on="0"/>
        <pt x="1036" y="674" on="0"/>
        <pt x="1022" y="562" on="0"/>
        <pt x="1017" y="451" on="0"/>
        <pt x="1017" y="385" on="1"/>
        <pt x="1017" y="139" on="0"/>
        <pt x="1162" y="-94" on="0"/>
        <pt x="1308" y="-94" on="1"/>
        <pt x="1453" y="-94" on="0"/>
        <pt x="1599" y="139" on="0"/>
        <pt x="1599" y="385" on="1"/>
        <pt x="1599" y="452" on="0"/>
        <pt x="1593" y="563" on="0"/>
        <pt x="1579" y="674" on="0"/>
        <pt x="1554" y="797" on="0"/>
        <pt x="1535" y="877" on="1"/>
        <pt x="1715" y="877" on="1"/>
        <pt x="1732" y="820" on="0"/>
        <pt x="1754" y="717" on="0"/>
        <pt x="1760" y="666" on="1"/>
        <pt x="1774" y="638" on="0"/>
        <pt x="1833" y="608" on="0"/>
        <pt x="1875" y="608" on="1"/>
        <pt x="1916" y="608" on="0"/>
        <pt x="1971" y="627" on="0"/>
        <pt x="2012" y="684" on="0"/>
        <pt x="2047" y="790" on="0"/>
        <pt x="2069" y="877" on="1"/>
        <pt x="2249" y="877" on="1"/>
        <pt x="2230" y="798" on="0"/>
        <pt x="2205" y="674" on="0"/>
        <pt x="2191" y="562" on="0"/>
        <pt x="2186" y="451" on="0"/>
        <pt x="2186" y="385" on="1"/>
        <pt x="2186" y="139" on="0"/>
        <pt x="2331" y="-94" on="0"/>
        <pt x="2477" y="-94" on="1"/>
        <pt x="2622" y="-94" on="0"/>
        <pt x="2768" y="139" on="0"/>
        <pt x="2768" y="385" on="1"/>
        <pt x="2768" y="452" on="0"/>
        <pt x="2762" y="563" on="0"/>
        <pt x="2748" y="674" on="0"/>
        <pt x="2723" y="797" on="0"/>
        <pt x="2704" y="877" on="1"/>
      </contour>
    </TTGlyph>
    <TTGlyph name="glyph00069" xMin="102" yMin="-242" xMax="2823" yMax="899">
      <contour>
        <pt x="767" y="193" on="1"/>
        <pt x="783" y="121" on="0"/>
        <pt x="840" y="14" on="0"/>
        <pt x="916" y="-58" on="0"/>
        <pt x="1009" y="-94" on="0"/>
        <pt x="1061" y="-94" on="1"/>
        <pt x="1256" y="-94" on="0"/>
        <pt x="1433" y="141" on="0"/>
        <pt x="1433" y="387" on="1"/>
        <pt x="1433" y="453" on="0"/>
        <pt x="1431" y="596" on="0"/>
        <pt x="1428" y="728" on="0"/>
        <pt x="1425" y="841" on="0"/>
        <pt x="1423" y="877" on="1"/>
        <pt x="1580" y="877" on="1"/>
        <pt x="1587" y="865" on="0"/>
        <pt x="1602" y="826" on="0"/>
        <pt x="1612" y="783" on="0"/>
        <pt x="1619" y="741" on="0"/>
        <pt x="1619" y="725" on="1"/>
        <pt x="1619" y="670" on="0"/>
        <pt x="1687" y="608" on="0"/>
        <pt x="1748" y="608" on="1"/>
        <pt x="1789" y="608" on="0"/>
        <pt x="1844" y="627" on="0"/>
        <pt x="1885" y="684" on="0"/>
        <pt x="1920" y="790" on="0"/>
        <pt x="1942" y="877" on="1"/>
        <pt x="2122" y="877" on="1"/>
        <pt x="2103" y="798" on="0"/>
        <pt x="2078" y="674" on="0"/>
        <pt x="2064" y="562" on="0"/>
        <pt x="2059" y="451" on="0"/>
        <pt x="2059" y="385" on="1"/>
        <pt x="2059" y="139" on="0"/>
        <pt x="2204" y="-94" on="0"/>
        <pt x="2350" y="-94" on="1"/>
        <pt x="2495" y="-94" on="0"/>
        <pt x="2641" y="139" on="0"/>
        <pt x="2641" y="385" on="1"/>
        <pt x="2641" y="452" on="0"/>
        <pt x="2635" y="563" on="0"/>
        <pt x="2621" y="674" on="0"/>
        <pt x="2596" y="797" on="0"/>
        <pt x="2577" y="877" on="1"/>
        <pt x="2757" y="877" on="1"/>
        <pt x="2777" y="802" on="0"/>
        <pt x="2802" y="675" on="0"/>
        <pt x="2817" y="557" on="0"/>
        <pt x="2823" y="441" on="0"/>
        <pt x="2823" y="377" on="1"/>
        <pt x="2823" y="59" on="0"/>
        <pt x="2588" y="-242" on="0"/>
        <pt x="2350" y="-242" on="1"/>
        <pt x="2111" y="-242" on="0"/>
        <pt x="1877" y="59" on="0"/>
        <pt x="1877" y="377" on="1"/>
        <pt x="1877" y="408" on="0"/>
        <pt x="1879" y="469" on="0"/>
        <pt x="1879" y="498" on="1"/>
        <pt x="1824" y="449" on="0"/>
        <pt x="1742" y="449" on="1"/>
        <pt x="1707" y="449" on="0"/>
        <pt x="1642" y="464" on="0"/>
        <pt x="1613" y="481" on="1"/>
        <pt x="1613" y="406" on="1"/>
        <pt x="1613" y="237" on="0"/>
        <pt x="1542" y="-8" on="0"/>
        <pt x="1403" y="-166" on="0"/>
        <pt x="1195" y="-242" on="0"/>
        <pt x="1058" y="-242" on="1"/>
        <pt x="858" y="-242" on="0"/>
        <pt x="616" y="-10" on="0"/>
        <pt x="581" y="216" on="1"/>
        <pt x="549" y="232" on="0"/>
        <pt x="492" y="277" on="0"/>
        <pt x="447" y="323" on="0"/>
        <pt x="417" y="365" on="0"/>
        <pt x="412" y="379" on="1"/>
        <pt x="408" y="327" on="0"/>
        <pt x="393" y="233" on="0"/>
        <pt x="363" y="142" on="0"/>
        <pt x="313" y="50" on="0"/>
        <pt x="274" y="0" on="1"/>
        <pt x="102" y="0" on="1"/>
        <pt x="172" y="100" on="0"/>
        <pt x="250" y="322" on="0"/>
        <pt x="250" y="434" on="1"/>
        <pt x="250" y="501" on="0"/>
        <pt x="233" y="618" on="0"/>
        <pt x="198" y="725" on="0"/>
        <pt x="143" y="826" on="0"/>
        <pt x="104" y="879" on="1"/>
        <pt x="295" y="879" on="1"/>
        <pt x="305" y="858" on="0"/>
        <pt x="333" y="784" on="0"/>
        <pt x="371" y="692" on="0"/>
        <pt x="417" y="589" on="0"/>
        <pt x="471" y="491" on="0"/>
        <pt x="533" y="405" on="0"/>
        <pt x="567" y="375" on="1"/>
        <pt x="566" y="389" on="0"/>
        <pt x="566" y="417" on="0"/>
        <pt x="566" y="431" on="1"/>
        <pt x="566" y="533" on="0"/>
        <pt x="612" y="705" on="0"/>
        <pt x="691" y="830" on="0"/>
        <pt x="795" y="899" on="0"/>
        <pt x="853" y="899" on="1"/>
        <pt x="919" y="899" on="0"/>
        <pt x="1026" y="833" on="0"/>
        <pt x="1101" y="711" on="0"/>
        <pt x="1142" y="536" on="0"/>
        <pt x="1142" y="428" on="1"/>
        <pt x="1142" y="304" on="0"/>
        <pt x="1002" y="193" on="0"/>
        <pt x="861" y="193" on="1"/>
      </contour>
      <contour>
        <pt x="748" y="332" on="1"/>
        <pt x="841" y="332" on="1"/>
        <pt x="907" y="332" on="0"/>
        <pt x="959" y="384" on="0"/>
        <pt x="959" y="432" on="1"/>
        <pt x="959" y="585" on="0"/>
        <pt x="906" y="750" on="0"/>
        <pt x="855" y="750" on="1"/>
        <pt x="804" y="750" on="0"/>
        <pt x="748" y="572" on="0"/>
        <pt x="748" y="410" on="1"/>
      </contour>
    </TTGlyph>
    <TTGlyph name="glyph00070" xMin="133" yMin="-242" xMax="2766" yMax="899">
      <contour>
        <pt x="2267" y="877" on="1"/>
        <pt x="2282" y="825" on="0"/>
        <pt x="2307" y="685" on="0"/>
        <pt x="2315" y="613" on="1"/>
        <pt x="2325" y="589" on="0"/>
        <pt x="2356" y="552" on="0"/>
        <pt x="2392" y="528" on="0"/>
        <pt x="2430" y="516" on="0"/>
        <pt x="2447" y="516" on="1"/>
        <pt x="2519" y="516" on="0"/>
        <pt x="2584" y="603" on="0"/>
        <pt x="2584" y="694" on="1"/>
        <pt x="2584" y="879" on="1"/>
        <pt x="2725" y="879" on="1"/>
        <pt x="2734" y="853" on="0"/>
        <pt x="2749" y="793" on="0"/>
        <pt x="2760" y="734" on="0"/>
        <pt x="2766" y="681" on="0"/>
        <pt x="2766" y="662" on="1"/>
        <pt x="2766" y="520" on="0"/>
        <pt x="2607" y="367" on="0"/>
        <pt x="2447" y="367" on="1"/>
        <pt x="2379" y="367" on="0"/>
        <pt x="2333" y="396" on="1"/>
        <pt x="2333" y="377" on="1"/>
        <pt x="2333" y="59" on="0"/>
        <pt x="2098" y="-242" on="0"/>
        <pt x="1860" y="-242" on="1"/>
        <pt x="1621" y="-242" on="0"/>
        <pt x="1387" y="61" on="0"/>
        <pt x="1387" y="379" on="1"/>
        <pt x="1336" y="367" on="0"/>
        <pt x="1272" y="367" on="1"/>
        <pt x="1192" y="367" on="0"/>
        <pt x="1139" y="410" on="1"/>
        <pt x="1139" y="379" on="1"/>
        <pt x="1139" y="214" on="0"/>
        <pt x="1077" y="-22" on="0"/>
        <pt x="947" y="-172" on="0"/>
        <pt x="746" y="-242" on="0"/>
        <pt x="608" y="-242" on="1"/>
        <pt x="372" y="-242" on="0"/>
        <pt x="133" y="102" on="0"/>
        <pt x="133" y="431" on="1"/>
        <pt x="133" y="533" on="0"/>
        <pt x="179" y="705" on="0"/>
        <pt x="258" y="830" on="0"/>
        <pt x="362" y="899" on="0"/>
        <pt x="420" y="899" on="1"/>
        <pt x="486" y="899" on="0"/>
        <pt x="593" y="833" on="0"/>
        <pt x="668" y="711" on="0"/>
        <pt x="709" y="536" on="0"/>
        <pt x="709" y="428" on="1"/>
        <pt x="709" y="304" on="0"/>
        <pt x="569" y="193" on="0"/>
        <pt x="428" y="193" on="1"/>
        <pt x="334" y="193" on="1"/>
        <pt x="399" y="-94" on="0"/>
        <pt x="608" y="-94" on="1"/>
        <pt x="702" y="-94" on="0"/>
        <pt x="834" y="-40" on="0"/>
        <pt x="918" y="76" on="0"/>
        <pt x="956" y="258" on="0"/>
        <pt x="956" y="387" on="1"/>
        <pt x="956" y="879" on="1"/>
        <pt x="1098" y="879" on="1"/>
        <pt x="1106" y="861" on="0"/>
        <pt x="1121" y="809" on="0"/>
        <pt x="1132" y="754" on="0"/>
        <pt x="1139" y="701" on="0"/>
        <pt x="1139" y="682" on="1"/>
        <pt x="1139" y="607" on="0"/>
        <pt x="1212" y="516" on="0"/>
        <pt x="1272" y="516" on="1"/>
        <pt x="1369" y="516" on="0"/>
        <pt x="1397" y="599" on="1"/>
        <pt x="1403" y="660" on="0"/>
        <pt x="1429" y="799" on="0"/>
        <pt x="1452" y="877" on="1"/>
        <pt x="1632" y="877" on="1"/>
        <pt x="1613" y="798" on="0"/>
        <pt x="1588" y="674" on="0"/>
        <pt x="1574" y="562" on="0"/>
        <pt x="1569" y="451" on="0"/>
        <pt x="1569" y="385" on="1"/>
        <pt x="1569" y="139" on="0"/>
        <pt x="1714" y="-94" on="0"/>
        <pt x="1860" y="-94" on="1"/>
        <pt x="2005" y="-94" on="0"/>
        <pt x="2151" y="139" on="0"/>
        <pt x="2151" y="385" on="1"/>
        <pt x="2151" y="452" on="0"/>
        <pt x="2145" y="563" on="0"/>
        <pt x="2131" y="674" on="0"/>
        <pt x="2106" y="797" on="0"/>
        <pt x="2087" y="877" on="1"/>
      </contour>
      <contour>
        <pt x="315" y="332" on="1"/>
        <pt x="408" y="332" on="1"/>
        <pt x="474" y="332" on="0"/>
        <pt x="526" y="384" on="0"/>
        <pt x="526" y="432" on="1"/>
        <pt x="526" y="585" on="0"/>
        <pt x="473" y="750" on="0"/>
        <pt x="422" y="750" on="1"/>
        <pt x="371" y="750" on="0"/>
        <pt x="315" y="572" on="0"/>
        <pt x="315" y="410" on="1"/>
      </contour>
    </TTGlyph>
</ttFont>
